<?xml version="1.0" encoding="utf-8"?>
<!-- Generator: Adobe Illustrator 22.0.1, SVG Export Plug-In . SVG Version: 6.00 Build 0)  -->
<svg version="1.1" id="Layer_1" xmlns="http://www.w3.org/2000/svg" xmlns:xlink="http://www.w3.org/1999/xlink" x="0px" y="0px"
	 viewBox="0 0 360 342" style="enable-background:new 0 0 360 342;" xml:space="preserve">
<style type="text/css">
	.st0{fill:#14753B;}
	.st1{fill:#231F20;}
	.st2{fill:#3C2417;}
	.st3{clip-path:url(#SVGID_2_);fill:#231F20;}
	.st4{clip-path:url(#SVGID_2_);fill:#808284;}
	.st5{clip-path:url(#SVGID_2_);fill:#929497;}
	.st6{clip-path:url(#SVGID_2_);fill:#C1B49A;}
	.st7{clip-path:url(#SVGID_2_);fill:#016838;}
	.st8{clip-path:url(#SVGID_2_);fill:#A7A8AC;}
	.st9{clip-path:url(#SVGID_2_);fill:#59595C;}
	.st10{clip-path:url(#SVGID_2_);fill:#D1D2D3;}
</style>
<g>
	<path class="st0" d="M337.677,78.838C319.483,69.303,290.5,62.412,290.5,62.412l-4.761-16.207c0,0-36.419-18.938-105.027-20.209
		v-0.033h-0.687c-0.213,0-0.393,0-0.571,0.002c-0.175-0.002-0.358-0.002-0.535-0.002h-0.694v0.033
		C109.586,27.268,73.21,46.205,73.21,46.205l-4.773,16.207c0,0-29.053,6.891-47.205,16.426
		c2.422,40.484,21.299,71.379,21.299,71.379l-7.179,11.941c0,0,14.065,41.658,40.811,72.148
		c26.74,30.496,43.097,49.633,43.097,49.633l12.88-2.172l46.088,41.217v1.615h0.689l0.537-0.492l0.571,0.492h0.687v-1.615
		l46.029-41.217l12.915,2.172c0,0,16.335-19.137,43.087-49.633c26.777-30.49,40.786-72.148,40.786-72.148l-7.148-11.941
		C316.381,150.217,335.288,119.322,337.677,78.838"/>
	<path class="st1" d="M345.222,76.162c-18.885-9.955-49.014-17.178-49.014-17.178l-4.955-16.934c0,0-38.432-20.133-110.901-21.174
		h-0.749C107.134,21.918,68.698,42.051,68.698,42.051l-4.913,16.934c0,0-30.134,7.223-49.007,17.178
		c2.492,42.342,22.111,74.639,22.111,74.639l-7.498,12.482c0,0,16.32,41.938,42.221,75.359
		c24.146,31.143,44.936,51.859,44.936,51.859l13.385-2.234l50.062,44.855l50.056-44.855l13.395,2.234
		c0,0,20.777-20.717,44.898-51.859c25.908-33.422,42.228-75.359,42.228-75.359l-7.48-12.482
		C323.092,150.801,342.695,118.504,345.222,76.162 M179.966,325.477l-49.129-44.068l-12.88,2.135c0,0-18.841-17.685-41.614-48.65
		c-24.211-32.852-40.463-71.205-40.463-71.205l7.088-11.98c0,0-20.297-32.232-22.704-73.123
		c18.188-9.635,48.282-16.855,48.282-16.855l4.739-16.34c0,0,36.594-17.803,106.319-18.771h0.737
		c69.782,0.969,106.304,18.771,106.304,18.771l4.797,16.34c0,0,30.135,7.221,48.256,16.855
		c-2.391,40.891-22.705,73.123-22.705,73.123l7.115,11.98c0,0-16.244,38.354-40.497,71.205c-22.771,30.965-41.58,48.65-41.58,48.65
		l-12.887-2.135L179.966,325.477z"/>
	<path class="st2" d="M341.575,78.002c-18.409-9.738-47.896-16.715-47.896-16.715l-4.836-16.449c0,0-37.639-19.562-108.521-20.568
		h-0.717C108.753,25.275,71.177,44.838,71.177,44.838l-4.899,16.449c0,0-29.45,6.976-47.893,16.715
		c2.421,41.111,21.616,72.469,21.616,72.469l-7.331,12.16c0,0,15.961,40.684,41.321,73.201c23.578,30.209,43.93,50.414,43.93,50.414
		l13.103-2.24l48.971,43.59l48.976-43.59l13.102,2.24c0,0,20.31-20.205,43.909-50.414c25.344-32.518,41.301-73.201,41.301-73.201
		l-7.328-12.16C319.954,150.471,339.19,119.113,341.575,78.002 M179.966,320.143l-48.047-42.775l-12.629,2.057
		c0,0-18.365-17.182-40.68-47.238C54.901,200.205,38.992,163,38.992,163l6.964-11.658c0,0-19.881-31.291-22.229-71.035
		c17.791-9.381,47.234-16.342,47.234-16.342l4.66-15.912c0,0,35.797-17.291,104.01-18.227h0.689
		c68.278,0.936,104.007,18.227,104.007,18.227l4.697,15.912c0,0,29.448,6.961,47.205,16.342
		c-2.315,39.744-22.231,71.035-22.231,71.035L320.998,163c0,0-15.952,37.205-39.622,69.186
		c-22.302,30.057-40.672,47.238-40.672,47.238l-12.675-2.057L179.966,320.143z"/>
	<path class="st2" d="M329.297,83.594c0,0-22.231-10.49-37.212-10.49c5.127,2.869,9.749,6.769,13.647,11.295
		c-11.692-4.303-29.192-9.824-41.795-9.824c8.698,4.799,16.53,12.563,22.778,21.695c-4.766,2.416-13.579,7.141-24.688,1.438
		c-16.678-8.584-48.648-22.123-82-22.156l0,0l0,0h-0.003h-0.059l0,0l0,0c-33.355,0.033-65.324,13.572-82,22.156
		c-11.085,5.703-19.891,0.979-24.684-1.438c6.273-9.133,14.074-16.896,22.803-21.695c-12.627,0-30.131,5.521-41.826,9.824
		c3.892-4.525,8.51-8.426,13.646-11.295c-14.99,0-37.224,10.49-37.224,10.49s0.938,20.863,10.914,37.211
		c-0.442-5.982,0.394-12.014,2.199-17.717c2.304,11.658,6.749,28.621,14.895,41.863c-0.726-9.672,1.159-20.141,4.911-30.061
		c6.835,3.676,17.033,6.275,17.687,10.938c0.941,7.143,9.023,98.557,80.127,122.887c7.93,3.281,8.545,16.238,8.141,23.85
		c-14.243-2.342-24.359-5.732-24.359-5.732s10.399,16.236,27.655,26.965c-1.804,1.902-15.273-1.926-15.273-1.926
		s16.352,16.705,22.45,20.291c6.399-3.326,23.238-20.291,23.238-20.291s-14.096,3.686-16.123,1.926
		c12.272-6.434,27.682-26.965,27.682-26.965s-10.107,3.391-24.408,5.732c-0.352-7.611,0.221-20.568,8.166-23.85
		c71.061-24.33,79.175-115.744,80.123-122.887c0.637-4.662,10.857-7.262,17.719-10.938c3.719,9.92,5.592,20.389,4.903,30.061
		c8.128-13.242,12.596-30.205,14.874-41.863c1.836,5.703,2.638,11.734,2.202,17.717C328.392,104.457,329.297,83.594,329.297,83.594
		 M180.025,83.422c5.059,0,33.239-2.641,76.767,23.096c0,0,9.02,6.024,9.063,16.24c0.036,31.941-22.055,117.656-85.826,117.721
		h-0.003h-0.059l0,0c-63.779-0.064-85.867-85.779-85.826-117.721c0.023-10.217,9.095-16.24,9.095-16.24
		C146.761,80.781,174.942,83.422,180.025,83.422"/>
	<g>
		<g>
			<path class="st1" d="M224.313,267.838c-3.057-3.824-1.622-8.623,2.306-11.801c0.44-0.363,0.936-0.719,1.41-1.049
				c0.515-0.355,1.019-0.607,1.482-0.861c0.827,1.117,1.376,1.877,2.995,3.967l-0.437,0.365c-0.676-0.613-1.3-0.799-1.799-0.801
				c-0.538,0.002-1.351,0.367-2.099,1.008c-1.873,1.49-2.598,4.336-0.792,6.572c1.847,2.348,4.506,2.49,6.538,0.869
				c0.715-0.617,1.328-1.305,1.517-1.99c0.177-0.537,0.212-1.113-0.253-1.844l0.506-0.389c1.002,1.295,2.191,2.738,2.99,3.641
				c-0.219,0.359-0.649,0.834-1.055,1.336c-0.498,0.547-1.123,1.055-1.798,1.621c-3.819,3.078-8.521,3.111-11.512-0.645H224.313z"/>
			<path class="st1" d="M247.919,247.41c3.139,3.424,2.674,8.377-0.83,11.557c-3.324,3.027-8.271,3.096-11.223-0.148
				c-3.318-3.65-2.605-8.453,0.859-11.66c3.295-3.027,8.01-3.277,11.193,0.211V247.41z M245.069,250.227
				c-1.67-1.801-4.48-2.385-6.354-0.76c-2.02,1.918-1.656,4.58,0.064,6.537c1.703,1.906,4.334,2.342,6.286,0.605
				c1.913-1.797,1.725-4.471,0.034-6.342L245.069,250.227z"/>
			<path class="st1" d="M245.29,239.293l0.384-0.438c7.795,1.559,9.278,1.908,10.621,2.277h0.031
				c-0.463-1.342-0.904-2.777-2.892-10.537l0.441-0.438l7.259,5.16c4.285,3.037,4.792,3.324,5.732,2.418l0.434,0.404
				c-0.582,0.57-1.373,1.4-2.201,2.273c-0.875,0.865-1.691,1.803-2.414,2.596l-0.435-0.438c1.118-1.188,0.541-1.551-1.049-2.67
				c-0.871-0.604-1.734-1.26-2.595-1.947h-0.004c0.434,1.154,0.688,2.059,0.977,3.07c0.209,0.723,0.494,2.049,0.936,3.93
				l-0.403,0.398c-2.011-0.354-3.353-0.607-4.069-0.725c-0.942-0.184-1.888-0.436-3.039-0.75l0,0
				c0.797,0.824,1.446,1.619,2.176,2.486c1.178,1.412,1.656,1.979,2.807,0.76l0.432,0.432c-0.686,0.684-1.553,1.559-2.455,2.527
				c-0.781,0.826-1.513,1.625-1.98,2.164l-0.471-0.395c0.938-1.02,0.651-1.521-2.672-5.633L245.29,239.293z"/>
			<path class="st1" d="M258.351,225l0.352-0.434c7.914,0.865,9.42,1.045,10.828,1.338l0.001-0.041
				c-0.577-1.227-1.114-2.662-3.744-10.205l0.39-0.473l7.647,4.543c4.516,2.664,5.052,2.918,5.889,1.914l0.503,0.361
				c-0.532,0.643-1.257,1.516-2.025,2.447c-0.715,0.98-1.508,1.922-2.157,2.781l-0.468-0.355c0.976-1.303,0.355-1.623-1.273-2.605
				c-0.929-0.529-1.863-1.113-2.77-1.758l-0.003,0.064c0.498,1.086,0.858,1.988,1.237,2.967c0.245,0.686,0.678,1.943,1.292,3.787
				l-0.362,0.463c-2.055-0.172-3.427-0.322-4.113-0.391c-0.983-0.115-1.982-0.25-3.103-0.469l-0.041,0.031
				c0.87,0.688,1.593,1.414,2.381,2.242c1.339,1.328,1.836,1.805,2.821,0.543l0.506,0.4c-0.615,0.75-1.409,1.689-2.209,2.703
				c-0.715,0.895-1.396,1.799-1.836,2.379l-0.504-0.398c0.87-1.086,0.577-1.594-3.105-5.377L258.351,225z"/>
			<path class="st1" d="M278.636,212.697c4.287,2.996,4.793,3.354,5.844,1.869l0.5,0.289c-0.5,0.725-1.303,1.805-2.164,3.037
				c-0.824,1.258-1.545,2.271-1.98,2.957l-0.506-0.326c1.007-1.48,0.537-1.842-3.678-4.797l-2.275-1.592
				c-3.978-2.746-4.416-3.061-5.422-1.662l-0.535-0.322c0.508-0.682,1.29-1.805,2.096-2.916c0.816-1.125,1.555-2.309,1.939-2.865
				l0.545,0.371c-0.982,1.338-0.545,1.658,3.429,4.469L278.636,212.697z"/>
			<path class="st1" d="M287.14,203.346c2.253,1.477,2.744,4.219,0.947,7.004c-0.859,1.336-1.853,2.344-2.488,2.738
				c-0.832-0.576-2.108-1.512-3.861-2.631l0.319-0.539c0.835,0.428,1.523,0.432,2.062,0.285c0.615-0.217,1.053-0.719,1.37-1.223
				c0.623-0.945,0.584-1.803-0.188-2.311c-0.533-0.363-1.11-0.223-1.797,0.07c-0.326,0.104-0.899,0.398-1.553,0.68
				c-2.199,1.051-3.61,0.797-4.799,0.045c-2.27-1.447-2.709-4.223-1.047-6.83c0.503-0.826,1.375-1.801,1.871-2.195
				c1.154,0.828,2.609,1.725,3.898,2.529l-0.322,0.535c-0.645-0.357-1.156-0.436-1.652-0.357c-0.471,0.109-0.876,0.424-1.239,1.008
				c-0.537,0.871-0.387,1.621,0.216,1.984c0.467,0.326,0.942,0.258,1.626,0c0.578-0.174,1.198-0.508,2.137-0.939
				c1.729-0.688,3.216-0.684,4.473,0.146H287.14z"/>
			<path class="st1" d="M292.601,193.812c2.379,1.336,2.959,4.045,1.328,6.971c-0.751,1.301-1.729,2.346-2.336,2.779
				c-0.878-0.537-2.203-1.408-4.016-2.422l0.33-0.541c0.797,0.369,1.541,0.369,2.059,0.184c0.566-0.248,1.043-0.756,1.286-1.301
				c0.587-0.941,0.514-1.873-0.243-2.309c-0.574-0.318-1.189-0.145-1.81,0.146c-0.32,0.107-0.903,0.475-1.541,0.791
				c-2.168,1.115-3.541,0.977-4.844,0.291c-2.307-1.371-2.855-4.08-1.293-6.785c0.428-0.836,1.225-1.875,1.723-2.273
				c1.199,0.752,2.675,1.623,3.982,2.34l-0.258,0.545c-0.645-0.324-1.192-0.396-1.697-0.256c-0.438,0.113-0.828,0.471-1.154,1.051
				c-0.51,0.873-0.295,1.656,0.326,1.988c0.469,0.252,0.977,0.18,1.582-0.078c0.574-0.289,1.195-0.607,2.136-1.039
				c1.658-0.84,3.171-0.84,4.438-0.119V193.812z"/>
			<path class="st1" d="M294.223,186.314c4.613,2.346,5.169,2.598,6.023,0.973l0.542,0.281c-0.393,0.801-1.015,1.963-1.696,3.254
				c-0.688,1.371-1.261,2.486-1.547,3.248l-0.618-0.295c0.834-1.625,0.326-1.871-4.296-4.18l-2.447-1.301
				c-4.3-2.162-4.842-2.418-5.634-0.861l-0.541-0.258c0.392-0.756,1.048-1.98,1.656-3.141c0.621-1.299,1.256-2.521,1.555-3.174
				l0.507,0.285c-0.72,1.486-0.247,1.742,4.075,3.936L294.223,186.314z"/>
			<path class="st1" d="M301.226,167.645c4.248,1.813,5.879,6.545,4.001,10.908c-1.769,4.146-6.249,6.209-10.247,4.471
				c-4.58-1.939-5.912-6.6-4.044-10.93C292.705,167.98,296.862,165.805,301.226,167.645L301.226,167.645z M299.777,171.414
				c-2.232-0.986-5.05-0.338-6.027,1.936c-1.119,2.602,0.29,4.877,2.708,5.928c2.318,1.002,4.904,0.322,5.927-2.033
				c1.036-2.41-0.222-4.828-2.529-5.83H299.777z"/>
			<path class="st1" d="M313.61,155.168l-0.19,0.533c-3.36,2.027-5.521,3.365-7.003,4.191c-0.821,0.512-2.094,1.156-3.601,1.803
				l-0.005,0.076c0.722,0.178,1.23,0.387,1.549,0.465c4.982,1.592,5.479,1.805,6.037,0.18l0.564,0.219
				c-0.39,1.148-0.758,2.232-1.072,3.213c-0.432,1.264-0.736,2.27-0.946,3.072l-0.604-0.184c0.54-1.664,0-1.871-4.952-3.465
				l-8.369-2.746l0.217-0.617c3.277-1.869,5.48-3.129,6.959-3.969c1.226-0.68,2.172-1.115,3.898-1.869l0.006-0.076
				c-0.795-0.293-1.735-0.541-2.279-0.729c-4.622-1.504-5.155-1.682-5.703,0.045l-0.571-0.221c0.353-1.148,0.745-2.197,1.038-3.127
				c0.438-1.24,0.765-2.281,0.981-3.039l0.578,0.176c-0.483,1.451,0.063,1.627,4.646,3.174L313.61,155.168z"/>
		</g>
		<g>
			<path class="st1" d="M60.612,156.859l0.439,1.518c0.459,1.473,0.684,1.807,1.474,1.729l0.21,0.549
				c-0.721,0.18-1.439,0.395-2.124,0.607c-0.86,0.215-1.618,0.51-2.35,0.768l-0.175-0.555c0.715-0.381,0.824-0.82,0.393-2.307
				l-0.473-1.479l-2.309,0.658c-2.096,0.643-2.639,0.816-2.168,2.379l-0.613,0.178c-0.176-0.689-0.562-2.051-0.93-3.215
				c-0.321-1.184-0.718-2.424-1.046-3.422l0.601-0.188c0.445,1.619,1.029,1.441,6.037-0.064l2.572-0.762
				c4.609-1.414,5.186-1.547,4.757-3.037l0.575-0.219c0.219,0.902,0.717,2.65,1.303,4.449c0.564,1.939,1.224,3.969,1.72,5.592
				c-1.009,0.244-2.483,0.648-4.499,1.223l-0.186-0.607c1.338-0.471,1.625-1.154,1.191-2.529l-0.682-2.348L60.612,156.859z"/>
			<path class="st1" d="M69.701,183.889c-4.29,1.746-8.771-0.391-10.579-4.725c-1.696-4.219-0.063-8.84,3.979-10.5
				c4.547-1.918,8.875,0.43,10.609,4.799c1.736,4.113,0.396,8.617-3.965,10.426H69.701z M68.01,180.242
				c2.337-0.965,3.791-3.426,2.85-5.662c-1.05-2.605-3.68-3.248-6.129-2.234c-2.31,0.975-3.679,3.279-2.675,5.705
				C63.024,180.428,65.657,181.225,68.01,180.242L68.01,180.242z"/>
			<path class="st1" d="M74.396,189.994c4.263-2.271,4.796-2.523,4.043-3.932l0.509-0.258l1.463,2.74
				c0.199,0.363,0.447,0.799,0.691,1.232c0.252,0.467,0.508,0.902,0.766,1.332c0.471,0.908,0.747,1.85,0.856,2.703
				c0.22,1.805-0.602,3.434-2.597,4.48c-1.403,0.756-2.739,0.617-3.681,0.25c-0.424-0.186-0.791-0.432-1.153-0.619l-0.023,0.004
				c-0.94,1.986-1.592,3.469-2.249,5.098c-0.472,1.152-0.472,1.625-0.112,2.23l-0.533,0.254c-0.291-0.51-0.658-1.26-1.005-1.879
				c-0.347-0.684-0.684-1.289-0.94-1.725c-0.334-0.615-0.479-1.018-0.252-1.447c1.045-1.883,2.055-3.822,2.811-5.158l-0.252-0.498
				l-0.681,0.346c-3.044,1.629-3.511,1.961-2.864,3.209l-0.502,0.299c-0.397-0.732-0.897-1.734-1.472-2.781
				c-0.578-1.119-1.194-2.168-1.588-2.959l0.503-0.289c0.753,1.4,1.256,1.082,5.887-1.338L74.396,189.994z M78.396,195.049
				c1.013-0.541,1.382-1.592,0.797-2.707c-0.213-0.365-0.432-0.652-0.464-0.752l-3.583,1.908c0.125,0.277,0.221,0.463,0.301,0.572
				c0.211,0.438,0.606,0.826,0.943,1.008c0.567,0.254,1.217,0.369,1.973,0L78.396,195.049z"/>
			<path class="st1" d="M83.671,206.557c4.072-2.67,4.579-2.963,3.722-4.299l0.496-0.313c0.614,0.93,1.45,2.305,2.505,3.928
				c1.075,1.656,2.27,3.453,3.205,4.867c-0.9,0.545-2.202,1.303-3.976,2.395l-0.321-0.514c1.15-0.857,1.218-1.547,0.431-2.781
				l-1.339-2.053l-2.805,1.801l0.816,1.332c0.872,1.307,1.164,1.553,1.893,1.271l0.32,0.502c-0.62,0.361-1.262,0.752-1.848,1.125
				c-0.748,0.504-1.433,0.936-2.052,1.395l-0.321-0.498c0.644-0.512,0.602-0.975-0.254-2.268l-0.865-1.34l-2.102,1.365
				c-0.611,0.363-0.639,0.537-0.289,1.123c0.434,0.727,0.767,1.26,1.27,1.912c0.648,0.932,1.301,1.303,2.373,0.717l0.299,0.512
				c-1.913,1.156-2.96,1.799-3.901,2.354c-0.903-1.418-1.88-2.965-2.741-4.34c-1.3-2.055-2.484-3.793-3.067-4.654l0.537-0.357
				c0.904,1.408,1.414,1.115,5.776-1.744L83.671,206.557z"/>
			<path class="st1" d="M94.209,229.652c-2.174,1.627-4.904,1.125-6.932-1.551c-0.912-1.225-1.506-2.527-1.657-3.277
				c0.834-0.553,2.157-1.445,3.827-2.678l0.354,0.469c-0.686,0.586-0.932,1.27-0.932,1.875c-0.066,0.582,0.246,1.195,0.618,1.668
				c0.688,0.898,1.509,1.193,2.233,0.643c0.509-0.359,0.604-0.941,0.576-1.691c0-0.361-0.041-1.006-0.11-1.73
				c-0.152-2.416,0.511-3.648,1.659-4.512c2.135-1.588,4.903-1.021,6.783,1.408c0.547,0.75,1.162,1.945,1.373,2.559
				c-1.156,0.793-2.531,1.844-3.75,2.74l-0.365-0.502c0.541-0.438,0.836-0.934,0.906-1.408c0.075-0.463-0.11-0.939-0.515-1.518
				c-0.604-0.791-1.397-0.904-1.944-0.5c-0.43,0.314-0.576,0.828-0.576,1.512c0,0.607,0.078,1.334,0.146,2.352
				C95.94,227.354,95.404,228.721,94.209,229.652L94.209,229.652z"/>
			<path class="st1" d="M107.134,232.832l-1.488-1.736c-0.895-1.002-1.693-1.002-2.811-0.139l-0.365-0.432
				c1.553-1.371,2.784-2.457,3.538-3.172c1.223,1.434,2.308,2.662,3.469,3.963l1.87,2.203c1.346,1.473,2.391,2.66,3.362,3.775
				c-0.759,0.689-2.017,1.748-3.579,3.119l-0.387-0.436c1.043-1.086,1.114-1.775,0.171-2.814l-1.402-1.664l-4.477,3.932
				c-3.931,3.441-4.362,3.828-3.103,5.314l-0.467,0.385c-0.617-0.686-1.477-1.754-2.415-2.809c-0.865-1-1.917-2.162-2.457-2.713
				l0.469-0.432c1.217,1.373,1.686,0.982,5.584-2.439L107.134,232.832z"/>
			<path class="st1" d="M115.07,246.365c3.417-3.492,3.787-3.928,2.673-5.014l0.394-0.402l2.277,2.172
				c0.252,0.256,0.645,0.607,1.007,0.939c0.398,0.385,0.753,0.756,1.086,1.07c0.785,0.73,1.336,1.527,1.687,2.283
				c0.765,1.701,0.444,3.496-1.11,5.088c-1.125,1.193-2.453,1.414-3.434,1.326c-0.473-0.033-0.897-0.131-1.292-0.252l-0.038,0.043
				c-0.332,2.199-0.505,3.789-0.576,5.525c-0.105,1.262,0.066,1.73,0.498,2.162l-0.427,0.436c-0.395-0.404-0.976-0.975-1.486-1.523
				c-0.571-0.504-1.049-1.002-1.433-1.367c-0.478-0.471-0.768-0.758-0.625-1.299c0.37-2.059,0.797-4.252,1.055-5.736l-0.427-0.365
				l-0.473,0.502c-2.42,2.461-2.781,2.896-1.733,3.9l-0.413,0.439c-0.6-0.576-1.397-1.375-2.272-2.246
				c-0.891-0.857-1.755-1.723-2.381-2.273l0.436-0.461c1.095,1.113,1.479,0.645,5.128-3.072L115.07,246.365z M120.425,249.898
				c0.809-0.783,0.854-1.908-0.049-2.773c-0.29-0.285-0.578-0.508-0.647-0.619l-2.859,2.926c0.187,0.217,0.367,0.398,0.434,0.465
				c0.369,0.371,0.834,0.588,1.237,0.684c0.573,0.119,1.264,0,1.883-0.607L120.425,249.898z"/>
			<path class="st1" d="M131.522,265.486l-0.865,1.059c-2.315,2.67-2.666,3.098-1.294,4.332l-0.371,0.465
				c-0.644-0.58-1.612-1.402-2.744-2.351c-1.151-0.977-2.154-1.84-2.84-2.379l0.433-0.436c1.377,1.158,1.724,0.727,4.033-1.938
				l0.688-0.871l0.465-2.275c1.338-6.785,1.634-7.33,0.628-8.205l0.398-0.461c0.54,0.461,1.223,1.084,2.153,1.838
				c1.12,0.938,2.244,1.842,3.291,2.715l-0.424,0.494c-1.372-1.18-1.494-0.494-2.102,2.1c-0.11,0.465-0.433,1.881-0.619,2.313
				l0.045,0.033c0.427-0.213,1.737-0.723,2.12-0.891c2.64-1.059,3.216-1.309,2.097-2.25l0.398-0.496
				c0.972,0.861,1.614,1.434,2.665,2.305c0.986,0.867,1.563,1.299,2.166,1.807l-0.347,0.473c-0.875-0.656-1.275-0.438-7.943,1.873
				L131.522,265.486z"/>
		</g>
		<g>
			<path class="st1" d="M110.997,74.473c-2.565,0.607-5.82,0.748-6.214,0.352c-0.509-0.496-0.764-4.221-1.549-7.611
				c0.435-0.146,0.612-0.184,1.04-0.252c0.43,1.408,1.303,2.277,2.175,2.711c0.969,0.434,2.147,0.32,3.093,0.096
				c1.926-0.465,2.998-1.58,2.68-3.061c-0.216-1.051-1.052-1.551-2.248-1.988c-0.496-0.215-1.611-0.57-2.77-0.936
				c-3.97-1.303-5.417-3.178-6.027-5.521c-1.017-4.361,2.058-8.264,7.573-9.629c1.667-0.375,4.95-0.723,5.241-0.502
				c0.602,0.605,0.861,5.15,1.334,7.641c-0.43,0.111-0.619,0.182-1.055,0.246c-0.279-1.18-0.865-1.869-1.578-2.34
				c-0.66-0.396-1.591-0.463-2.787-0.186c-1.799,0.408-2.592,1.592-2.338,2.779c0.178,0.811,0.861,1.367,1.975,1.775
				c1.021,0.402,2.203,0.754,3.863,1.373c2.967,1.084,4.661,2.889,5.133,5.336C119.364,69.238,116.517,73.102,110.997,74.473"/>
			<path class="st1" d="M125.905,55.125c-1.309-7.977-1.525-8.879-4.309-8.236c-0.063-0.426-0.104-0.609-0.172-1.004
				c1.951-0.432,2.916-0.623,4.823-1.047c1.023-0.254,1.815-0.432,2.614-0.607c0.818-0.186,1.627-0.369,2.563-0.553
				c3.093-0.574,5.697-0.502,7.614,0.293c2.457,0.943,4.107,3.176,4.472,6.277c0.144,1.441-0.042,2.711-0.473,3.9
				c-0.465,1.189-1.116,2.283-2.094,3.236c-1.021,0.986-2.275,1.814-3.859,2.436c-1.446,0.537-2.995,0.861-4.195,1.111
				c0.082,0.477,0.15,0.689,0.194,1.193c0.688,4.869,0.934,5.774,3.739,5.271c0.05,0.434,0.117,0.609,0.188,0.998
				c-1.732,0.299-3.79,0.66-5.837,1.098c-2.057,0.428-4.052,0.896-5.426,1.254c-0.101-0.432-0.139-0.607-0.187-1.008
				c2.72-0.617,2.431-1.557,1.057-10.172L125.905,55.125z M135.459,48.812c-0.753-0.404-1.737-0.553-2.954-0.299
				c-0.365,0.045-0.982,0.186-1.335,0.299c0.432,2.99,0.645,4.469,1.067,7.459c0.337-0.064,1.089-0.254,1.531-0.389
				c0.716-0.219,1.26-0.432,1.732-0.799c0.576-0.361,1.064-0.977,1.322-1.592c0.219-0.498,0.367-1.256,0.262-2.061
				C136.942,50.252,136.363,49.316,135.459,48.812"/>
			<path class="st1" d="M174.474,54.334c0.109,8.699,0.143,9.631,3.392,9.631c0,0.398,0,0.613,0,1.004
				c-1.512-0.025-3.749-0.025-6.024,0.047c-2.414,0.072-4.734,0.209-6.398,0.285c0-0.396,0-0.582-0.001-1.018
				c3.082-0.135,3.041-1.115,2.792-7.392c-0.004-0.832-0.049-1.26-0.05-2.055c-3.965,0.145-5.979,0.248-9.946,0.502
				c0.067,0.803,0.097,1.234,0.179,2.047c0.387,6.291,0.467,7.266,3.57,7.047c0.029,0.404,0.034,0.656,0.068,1.045
				c-1.582,0.045-3.936,0.18-6.319,0.361c-2.27,0.184-4.513,0.438-5.909,0.621c-0.043-0.438-0.045-0.621-0.102-1.053
				c3.058-0.318,2.991-1.258,2.23-9.953c-0.145-1.805-0.223-2.711-0.363-4.483c-0.688-8.045-0.801-9.051-3.895-8.695
				c-0.035-0.396-0.074-0.609-0.146-1.008c1.52-0.15,4.112-0.332,6.64-0.586c2.451-0.135,4.734-0.318,6.135-0.43
				c0.041,0.426,0.042,0.617,0.042,1.047c-3.001,0.148-2.938,1.191-2.503,7.693c0.006,0.57,0.038,0.858,0.076,1.443
				c4.01-0.297,6.03-0.375,10.065-0.506c-0.032-0.611-0.032-0.865-0.064-1.416c-0.221-6.596-0.253-7.578-3.144-7.465
				c-0.041-0.432-0.042-0.619-0.069-1.049c1.446-0.006,3.825-0.068,6.319-0.135c2.408-0.045,4.691-0.123,6.016-0.186
				c0,0.438,0,0.65,0,1.078c-2.879,0.002-2.806,0.979-2.67,9.027C174.396,51.592,174.435,52.49,174.474,54.334"/>
			<path class="st1" d="M191.833,54.473c-0.262,8.662-0.319,9.676,2.817,9.811c-0.033,0.436-0.033,0.621-0.036,1.018
				c-1.48-0.076-3.754-0.211-6.211-0.285c-2.527-0.072-4.652-0.072-6.068-0.047c0-0.391,0-0.566,0-1.004
				c3.07,0,3.111-0.932,3.253-9.563c0.004-1.811,0.028-2.775,0.077-4.617c0.104-8.049,0.143-9.027-3.041-9.027
				c0-0.432,0.001-0.641,0.001-1.078c1.52,0.063,4.042,0.137,6.465,0.182c2.567,0.07,5.091,0.137,6.357,0.139
				c-0.075,0.43-0.075,0.617-0.081,1.049c-2.983-0.113-3.031,0.828-3.354,8.881L191.833,54.473z"/>
			<path class="st1" d="M223.19,68.691c-0.432-0.108-0.604-0.141-1.004-0.207c-4.341-5.1-7.435-8.311-9.412-10.438
				c-1.13-1.223-2.723-3.068-4.491-5.313c-0.029,0-0.065,0-0.091-0.025c-0.084,1.258-0.086,2.127-0.156,2.742
				c-0.727,8.697-0.824,9.564,2.025,9.889c-0.035,0.434-0.035,0.682-0.074,1.045c-2.088-0.219-3.982-0.434-5.73-0.576
				c-2.173-0.152-4.013-0.219-5.392-0.287c0.029-0.398,0.029-0.615,0.034-1.051c2.996,0.182,3.044-0.75,3.617-9.451
				c0.429-5.887,0.616-8.775,1.002-14.654c0.431,0.063,0.647,0.064,1.056,0.064c4.837,4.584,7.896,7.828,9.914,10.041
				c1.633,1.771,2.791,3.242,4.731,5.918c0.004,0,0.043,0,0.07,0.002c0.125-1.447,0.299-3.035,0.438-4.02
				c0.908-8.01,1.058-9.01-2.238-9.445c0.05-0.434,0.082-0.621,0.113-1.01c2.242,0.324,4.216,0.686,6.025,0.977
				c2.387,0.396,4.295,0.719,5.771,0.969c-0.033,0.432-0.065,0.652-0.107,1.051c-2.814-0.551-2.957,0.432-4.046,8.441
				C224.428,59.449,224.003,62.523,223.19,68.691"/>
			<path class="st1" d="M241.168,59.236c-0.577-1.225-0.827-1.848-1.37-3.029c-3.972-8.799-4.48-10.072-6.67-10.541
				c0.064-0.402,0.104-0.652,0.135-1.01c0.8,0.182,3.032,0.688,5.954,1.297c2.597,0.586,5.199,1.193,6.823,1.517
				c-0.066,0.439-0.107,0.615-0.182,1.043c-3.284-0.758-2.301,0.982-1.37,3.146c0.504,1.184,1.013,2.488,1.372,3.574
				c0.004,0,0.031,0,0.073,0.002c0.792-0.762,1.879-1.84,2.776-2.645c1.691-1.588,2.711-2.775,0.072-3.391
				c0.111-0.391,0.18-0.641,0.254-1.01c1.904,0.504,4.395,1.127,6.827,1.738c2.377,0.568,3.671,0.818,4.544,1.01
				c-0.079,0.4-0.148,0.613-0.213,1.006c-2.275-0.572-3.213,0.426-9.977,6.746c-0.75,0.693-1.117,1.053-1.869,1.771
				c0.475,1.195,0.727,1.766,1.186,2.959c3.807,9.494,3.9,10.793,5.887,11.229c-0.107,0.43-0.173,0.613-0.242,1.047
				c-0.868-0.223-3.116-0.799-5.733-1.445c-2.407-0.613-4.778-1.15-6.331-1.516c0.076-0.361,0.148-0.574,0.221-1.004
				c3.21,0.785,2.705-0.686,1.547-3.801c-0.467-1.225-0.932-2.525-1.258-3.461c-0.009,0-0.01,0-0.066,0
				c-0.622,0.754-1.564,1.621-2.469,2.49c-2.187,2.203-3.127,3.531-0.322,4.152c-0.063,0.434-0.104,0.619-0.213,1.045
				c-1.838-0.473-4.146-1.045-6.422-1.555c-2.208-0.465-4.297-0.899-5.16-1.047c0.076-0.43,0.103-0.609,0.173-1.039
				c2.057,0.432,2.82-0.768,10.256-7.66C240.086,60.176,240.451,59.92,241.168,59.236"/>
		</g>
	</g>
	<g>
		<defs>
			<rect id="SVGID_1_" x="104.318" y="74.537" width="152.078" height="178.652"/>
		</defs>
		<clipPath id="SVGID_2_">
			<use xlink:href="#SVGID_1_"  style="overflow:visible;"/>
		</clipPath>
		<path class="st3" d="M256.396,193.273v1.119c-0.976,1.223-2.814,1.482-4.188,2.309c0.042,2.645,0.069,5.305,0,7.83l-1.12-0.031
			c0.112-3.828-0.316-7.863-0.748-11.227c0.002-1.441,2.02-0.998,2.658-1.875c-1.972-5.764-4.241-11.186-6.642-16.459l1.308-0.611
			C250.769,180.428,252.999,187.471,256.396,193.273"/>
		<path class="st3" d="M251.089,204.5l1.12,0.031c-0.146,5.311-0.687,10.287-2.273,14.152c-1.474,0.184-1.661-2.854-2.637-1.873
			c-2.439,7.867-6.131,14.576-11.004,20.055c-1.88,0.43-1.112-1.908-2.661-1.873c-0.371,0.508-0.729,1.059-1.127,1.559l-1.225-0.686
			c1-1.309,1.909-2.711,2.735-4.27c1.478-1.438,1.954,2.209,3.395,0.73c3.829-6.031,8.153-11.613,9.133-20.471
			c1.056-1.287,2.674,1.408,3.391,0.371C250.689,210.018,251.027,207.352,251.089,204.5"/>
		<path class="st4" d="M252.999,191.398c-0.639,0.877-2.656,0.434-2.658,1.875c0.432,3.363,0.86,7.398,0.748,11.227
			c-0.062,2.852-0.399,5.518-1.153,7.727c-0.717,1.037-2.335-1.658-3.391-0.371c-0.98,8.857-5.304,14.439-9.133,20.471
			c-1.441,1.479-1.917-2.168-3.395-0.73c-0.826,1.559-1.735,2.961-2.735,4.27c-2.234,2.924-4.981,5.336-8.651,7.859
			c-3.407,2.316-8.139,5.705-11.778,5.307c-2.665-0.314-5.486-4.285-7.932-6.09c-3.334-2.391-7.584-5.201-12.383-6.936
			c4.684-0.141,7.205-1.623,3.65-1.768c-4.585-0.219-9.254-0.396-13.837-0.111c-4.584-0.285-9.195-0.107-13.854,0.111
			c-3.535,0.145-1.012,1.627,3.721,1.768c-4.842,1.734-9.138,4.545-12.421,6.936c-2.483,1.805-5.227,5.775-7.97,6.09
			c-3.648,0.398-8.331-2.99-11.76-5.307c-3.978-2.703-6.893-5.369-9.207-8.656c-0.797-1.117-1.483-2.232-2.168-3.473
			c-1.475-1.438-1.941,2.209-3.4,0.73c-3.813-6.031-8.144-11.613-9.084-20.471c-1.117-1.287-2.717,1.408-3.426,0.371
			c-0.728-2.209-1.094-4.875-1.155-7.727c-0.115-3.828,0.278-7.863,0.751-11.227c-0.001-1.441-2.016-0.998-2.635-1.875
			c1.945-5.764,4.222-11.186,6.595-16.49c0.368-0.689,0.663-1.404,0.987-2.125c0.178-1.807-1.625-1.67-1.55-3.402
			c3.674-6.135,7.396-11.004,12.158-16.305c0.574-0.656,2.816-2.961,3.058-4.549c0.372-3.143-3.303-6.391-3.811-9.459
			c-0.302-1.883,0.031-3.754,0.43-5.561c0.638-2.525,1.447-5.018,1.082-7.723c-0.294-2.307-1.813-4.84-2.668-7.219
			c-3.602-10.172-3.283-24.752,1.369-34.174c1.191-2.42,2.6-4.438,4.322-6.02c-5.484,11.756-0.535,29.125,6.85,35.289
			c1.348,1.115,3.301,1.477,4.524,2.664c3.686,3.475,9.017,13.434,3.062,19.315c5.455,0.727,11.521,0.863,16.322,2.273
			c-0.175,0.326-0.326,0.643-0.517,1.016c-2.27,5.08-2.225,11.287-5.55,15.297c-1.304,1.475-2.885,2.412-4.623,3.178
			c-1.398,0.574-2.893,1.078-4.515,1.76c-1.978-1.291-3.497-4.217-3.019-6.818c-1.854-1.445-5.124-1.51-8.342-1.545
			c-0.207,2.057,1.55,2.346,1.484,4.582c-0.051,3.037-4.415,5.197-3.755,7.936c0.69,0.688,1.622-1.658,3.755-0.789
			c-1.304,3.713-3.256,7.328-3.755,11.041c-2.091,15.229,7.719,25.775,18.188,29.559c1.157,7.473,5.517,11.691,14.438,11.379
			c-0.045,0.242-0.071,0.465-0.071,0.678c-0.66,7.83,5.273,11.324,11.545,12.775c3.063,0.645,4.976,0.893,9.24,0
			c6.679-1.768,12.205-4.947,11.582-12.777c-0.035-0.246-0.064-0.434-0.069-0.676c8.875,0.313,13.283-3.906,14.361-11.379
			c10.493-3.783,20.349-14.33,18.222-29.559c-0.491-3.713-2.455-7.328-3.78-11.041c2.161-0.869,3.069,1.477,3.78,0.789
			c0.661-2.738-3.705-4.898-3.78-7.936c-0.048-2.236,1.696-2.525,1.51-4.582c-3.247,0.035-6.461,0.1-8.332,1.545
			c0.475,2.602-1.02,5.527-3.037,6.818c-3.68-1.471-6.82-2.232-9.089-4.938c-3.466-4.111-3.288-10.65-5.821-15.801l-0.256-0.512
			c4.772-1.41,10.802-1.547,16.281-2.273c-5.963-5.881-0.605-15.84,3.042-19.315c1.224-1.188,3.247-1.549,4.541-2.664
			c7.407-6.164,12.341-23.533,6.823-35.289c1.738,1.582,3.176,3.6,4.334,6.02c4.688,9.422,5.014,24.002,1.365,34.174
			c-0.836,2.379-2.338,4.912-2.638,7.219c-0.36,2.705,0.479,5.236,1.085,7.807c0.398,1.797,0.724,3.598,0.436,5.477
			c-0.505,3.068-4.217,6.316-3.788,9.459c0.214,1.588,2.418,3.893,2.998,4.549c4.761,5.301,8.514,10.17,12.166,16.305
			c0.123,1.732-1.738,1.596-1.526,3.402c0.328,0.721,0.65,1.436,0.969,2.156C248.758,180.213,251.027,185.635,252.999,191.398
			 M243.114,193.273c0.587-8.152-1.618-16.814-4.583-22.732c0.329-0.754,1.235,1.041,2.67,0.359
			c-1.183-5.096-4.729-7.871-8.298-10.617c-0.621-0.1-0.682,0.371-1.152,0.371c1.045,1.254,1.544,2.998,2.267,4.543
			c-0.51,1.014-3.247-0.143-3.788,0.795c3.15,4.297,4.842,10.072,5.31,17.031c-0.403,0.729-1.556-0.943-3.035-0.354
			c3.189,9.234,0.624,22.195-2.275,29.951c-1.375-0.293-1.622-1.67-3.789-1.152c-1.756,6.096-2.438,11.396-5.309,15.947
			c-3.132,4.912-7.929,8.018-11.357,12.49c8.335-0.863,14.005-4.41,17.029-10.617c1.434-0.316,0.475,1.842,1.91,1.553
			c2.313-4.254,4.92-8.227,6.035-13.676c0.793,0.762,0.211,2.885,1.546,3.037c4.589-4.662,4.224-14.33,4.906-22.775
			c0.109-1.301,0.936-3.467,0-5.277C241.89,190.971,241.775,193.812,243.114,193.273 M227.556,128.062
			c4.584-7.117,9.971-17.865,9.1-28.447c-0.039-0.568-0.322-2.123-0.726-2.305c-0.324-0.043-0.387,0.182-0.39,0.396
			c-1.479,7.576-2.89,14.004-6.825,19.709c-2.915,4.254-6.896,8.338-6.814,14.07c0.004,2.531,1.223,5.129,1.88,7.939
			c2.275-1.553,0.097-2.99,0.354-4.902C224.386,132.824,226.12,130.293,227.556,128.062 M230.6,126.514
			c-0.441,0-0.688,0.104-0.765,0.432c-1.188,4.65-5.053,9.855-2.279,15.158C234.562,140.045,229.589,132.646,230.6,126.514
			 M223.779,144.01c-7.985-0.313-12.71,2.682-18.584,4.518c-0.341,2.273,1.033,2.748,1.536,4.18
			c5.023-3.027,9.789-6.385,16.282-7.977C223.694,144.883,223.743,144.447,223.779,144.01 M218.858,210.348
			c1.995-0.334,2.676,2.164,4.155,1.121c-1.051-2.744-2.636-4.912-5.659-5.664c-1.739,1.615-2.28,3.994-3.036,6.051
			c-2.423,6.363-5.477,11.887-9.123,17.08c0.026,0.037,0.026,0.1,0,0.141c-0.123,0.08-0.259,0.146-0.368,0.213
			c0.176,0,0.363-0.064,0.368-0.213C211.211,225.729,216.338,218.359,218.858,210.348 M155.89,229.289
			c-0.109-0.066-0.256-0.133-0.369-0.213c-0.029-0.041-0.029-0.104,0-0.141c-3.678-5.193-6.703-10.717-9.094-17.08
			c-0.79-2.057-1.371-4.436-3.025-6.051c-3.1,0.752-4.65,2.92-5.703,5.664c1.482,1.043,2.165-1.455,4.141-1.121
			c2.499,8.012,7.663,15.381,13.682,18.729C155.562,229.225,155.736,229.289,155.89,229.289 M154.005,152.707
			c0.477-1.432,1.848-1.906,1.516-4.18c-5.887-1.836-10.634-4.83-18.578-4.518c0.039,0.438,0.1,0.873,0.756,0.721
			C144.192,146.322,148.923,149.68,154.005,152.707 M150.984,239.906c-3.477-4.473-8.27-7.578-11.373-12.49
			c-2.89-4.551-3.575-9.852-5.348-15.947c-2.156-0.518-2.406,0.859-3.775,1.152c-2.893-7.756-5.462-20.717-2.278-29.951
			c-1.45-0.59-2.645,1.082-3.029,0.354c0.468-6.959,2.125-12.734,5.308-17.031c-0.556-0.938-3.253,0.219-3.796-0.795
			c0.688-1.545,1.232-3.289,2.299-4.543c-0.492,0-0.561-0.471-1.176-0.371c-3.58,2.746-7.149,5.521-8.335,10.617
			c1.436,0.682,2.377-1.113,2.657-0.359c-2.878,5.918-5.129,14.58-4.58,22.732c1.363,0.539,1.238-2.303,1.923-1.123
			c-0.94,1.811-0.116,3.977,0,5.277c0.718,8.445,0.323,18.113,4.905,22.775c1.369-0.152,0.749-2.275,1.548-3.037
			c1.124,5.449,3.721,9.422,6.05,13.676c1.462,0.289,0.478-1.869,1.926-1.553C136.942,235.496,142.573,239.043,150.984,239.906
			 M138.842,131.486c0.042-5.732-3.96-9.816-6.858-14.07c-3.92-5.705-5.291-12.133-6.803-19.709
			c-0.046-0.215-0.084-0.439-0.369-0.396c-0.426,0.182-0.718,1.736-0.787,2.305c-0.801,10.582,4.537,21.33,9.122,28.447
			c1.445,2.23,3.18,4.762,3.419,6.461c0.258,1.912-1.908,3.35,0.377,4.902C137.561,136.615,138.815,134.018,138.842,131.486
			 M133.146,142.104c2.782-5.303-1.039-10.508-2.273-15.158c-0.069-0.328-0.323-0.432-0.79-0.432
			C131.133,132.646,126.154,140.045,133.146,142.104"/>
		<path class="st3" d="M249.572,169.783c-0.248,1.912-1.367,2.922-1.907,4.545l-1.308,0.611c-0.318-0.721-0.641-1.436-0.969-2.156
			c-0.212-1.807,1.649-1.67,1.526-3.402c-3.652-6.135-7.405-11.004-12.166-16.305c-0.58-0.656-2.784-2.961-2.998-4.549
			c-0.429-3.143,3.283-6.391,3.788-9.459c0.287-1.879-0.038-3.68-0.436-5.477l1.079-0.227c0.515,2.096,1.058,4.439,0.88,7.217
			c-0.445,5.92-3.681,8.949,0,12.494C241.35,157.191,245.858,164.369,249.572,169.783"/>
		<path class="st3" d="M238.531,170.541c2.965,5.918,5.17,14.58,4.583,22.732c-1.339,0.539-1.225-2.303-1.913-1.123
			c0.936,1.811,0.109,3.977,0,5.277c-0.683,8.445-0.317,18.113-4.906,22.775c-1.335-0.152-0.753-2.275-1.546-3.037
			c-1.115,5.449-3.723,9.422-6.035,13.676c-1.435,0.289-0.477-1.869-1.91-1.553c-3.025,6.207-8.694,9.754-17.029,10.617
			c3.429-4.473,8.226-7.578,11.357-12.49c2.871-4.551,3.553-9.852,5.309-15.947c2.167-0.518,2.414,0.859,3.789,1.152
			c2.898-7.756,5.464-20.717,2.275-29.951c1.479-0.59,2.632,1.082,3.035,0.354c-0.468-6.959-2.159-12.734-5.31-17.031
			c0.541-0.938,3.278,0.219,3.788-0.795c-0.723-1.545-1.222-3.289-2.267-4.543c0.471,0,0.531-0.471,1.152-0.371
			c3.569,2.746,7.115,5.521,8.298,10.617C239.767,171.582,238.86,169.787,238.531,170.541"/>
		<path class="st3" d="M241.965,105.283c0.462,6.176-0.876,10.475-3.034,15.563c-1.051,2.494-3.237,5.77-3.392,7.971
			c-0.104,1.412,0.244,2.893,0.643,4.549l-1.079,0.227c-0.607-2.57-1.445-5.102-1.085-7.807c0.3-2.307,1.802-4.84,2.638-7.219
			c3.649-10.172,3.323-24.752-1.365-34.174l0.829-0.404C239.147,90.098,241.425,97.459,241.965,105.283"/>
		<path class="st3" d="M236.655,99.615c0.871,10.582-4.516,21.33-9.1,28.447c-1.436,2.23-3.17,4.762-3.423,6.461
			c-0.257,1.912,1.921,3.35-0.354,4.902c-0.657-2.811-1.876-5.408-1.88-7.939c-0.082-5.732,3.899-9.816,6.814-14.07
			c3.936-5.705,5.346-12.133,6.825-19.709c0.003-0.215,0.065-0.439,0.39-0.396C236.333,97.492,236.616,99.047,236.655,99.615"/>
		<path class="st3" d="M236.119,83.988l-0.829,0.404c-1.158-2.42-2.596-4.438-4.334-6.02c5.518,11.756,0.584,29.125-6.823,35.289
			c-1.294,1.115-3.317,1.477-4.541,2.664c-3.647,3.475-9.005,13.434-3.042,19.315c-5.48,0.727-11.509,0.863-16.281,2.273
			l0.256,0.512l-1.791,0.643c-7.407,1.732-12.427,5.816-18.19,9.24c-0.002,0.066-0.002,0.18-0.002,0.219
			c-0.071-0.035-0.114-0.039-0.189-0.111c-0.063,0.072-0.109,0.076-0.181,0.111c0-0.039,0-0.152,0-0.219
			c-5.775-3.424-10.826-7.508-18.221-9.24l-1.993-0.139c0.19-0.373,0.342-0.689,0.517-1.016c-4.801-1.41-10.867-1.547-16.322-2.273
			c5.955-5.881,0.624-15.84-3.062-19.315c-1.224-1.188-3.177-1.549-4.524-2.664c-7.385-6.164-12.334-23.533-6.85-35.289
			c-1.723,1.582-3.131,3.6-4.322,6.02l-0.76-0.404c0.756-1.586,1.55-3.061,2.428-4.434c1.292-2.125,2.654-5.518,5.699-4.98
			c-2.929,5.852-3.213,15.486-0.777,21.258c2.034,4.729,5.824,6.352,9.855,9.451c3.652,2.779,6.722,4.914,10.945,6.143
			c1.406-0.58,3.066-0.939,4.26-1.188c0.322-0.076,0.691-0.121,1.045-0.182c2.704-1.055,5.596-1.875,8.806-1.744
			c4.946,0.258,9.679,2.861,13.457,4.338c3.793-1.477,8.521-4.08,13.468-4.338c3.215-0.131,6.104,0.69,8.81,1.744
			c0.321,0.061,0.716,0.105,1.044,0.182c1.182,0.248,2.887,0.607,4.227,1.188c4.254-1.229,7.28-3.363,10.959-6.143
			c4.038-3.1,7.798-4.723,9.855-9.451c2.487-5.771,2.174-15.406-0.751-21.258c3.061-0.537,4.367,2.855,5.671,4.98
			C234.496,80.928,235.349,82.402,236.119,83.988"/>
		<path class="st3" d="M231.282,235.865l1.225,0.686c-5.771,7.58-14.149,12.627-23.537,16.639c-3.093-2.816-4.546-6.211-7.57-8.701
			c-5.812-4.762-12.851-6.818-21.048-7.83c-8.186,1.012-15.226,3.068-21.036,7.83c-3.064,2.49-4.48,5.885-7.584,8.701
			c-9.703-4.158-18.286-9.385-24.109-17.395l1.238-0.727c2.314,3.287,5.229,5.953,9.207,8.656c3.429,2.316,8.111,5.705,11.76,5.307
			c2.743-0.314,5.486-4.285,7.97-6.09c3.283-2.391,7.579-5.201,12.421-6.936c-4.732-0.141-7.256-1.623-3.721-1.768
			c4.659-0.219,9.27-0.396,13.854-0.111c4.583-0.285,9.252-0.107,13.837,0.111c3.555,0.145,1.033,1.627-3.65,1.768
			c4.799,1.734,9.049,4.545,12.383,6.936c2.445,1.805,5.267,5.775,7.932,6.09c3.64,0.398,8.371-2.99,11.778-5.307
			C226.302,241.201,229.048,238.789,231.282,235.865"/>
		<path class="st3" d="M229.835,126.945c0.114-0.328,0.324-0.432,0.765-0.432c-1.011,6.133,3.962,13.531-3.044,15.59
			C224.782,136.801,228.647,131.596,229.835,126.945"/>
		<path class="st3" d="M229.074,173.57c2.127,15.229-7.729,25.775-18.222,29.559c-1.078,7.473-5.486,11.691-14.361,11.379
			c0.005,0.242,0.034,0.43,0.069,0.676l-1.219,0.104c-3.554-3.063-8.6-4.686-13.575-6.311l0.316-0.898
			c5.895,0.1,11.95,3.607,17.033,1.873c4.369-1.479,7.945-8.482,6.079-14.396c-1.122-3.582-4.776-6.145-7.949-7.584
			c8.517-1.734,10.321,6.604,13.276,11.764c3.543,0.619,5.093-2.313,6.832-4.545c3.127-4.076,6.271-12.236,6.055-20.494
			c-3.649,1.115-6.205,4.219-11.002,3.057c4.287-1.729,10.098-6.926,6.451-13.666c-1.869,3.027-2.813,7.027-6.85,7.967
			c-1.982-2.197-2.35-8.086-6.813-9.09c-1.199-0.289-2.397-0.328-3.548-0.117l-0.323-1.5c0.872-0.189,1.806-0.336,2.749-0.297
			c4.467,0.107,6.451,3.32,9.084,5.695c3.181-5.734-6.096-10.676-11.758-9.123c-1.91,0.574-1.983,2.662-3.787,3.033
			c-0.986-2.424,1.045-4.982,1.121-7.578c-5.169,1.152-8.125,8.441-5.274,14.035l-1.671,0.031c-1.183-2.238-1.871-4.797-2.127-7.215
			c-4.043,0.256-6.589,1.98-9.12,3.76c2.849-7.764,9.999-11.229,18.575-13.281c0.913-3.682,0.148-7.869-0.383-11.338l1.791-0.643
			c2.533,5.15,2.355,11.689,5.821,15.801c2.269,2.705,5.409,3.467,9.089,4.938c2.018-1.291,3.512-4.217,3.037-6.818
			c1.871-1.445,5.085-1.51,8.332-1.545c0.186,2.057-1.558,2.346-1.51,4.582c0.075,3.037,4.441,5.197,3.78,7.936
			c-0.711,0.688-1.619-1.658-3.78-0.789C226.619,166.242,228.583,169.857,229.074,173.57"/>
		<path class="st3" d="M205.195,148.527c5.874-1.836,10.599-4.83,18.584-4.518c-0.036,0.438-0.085,0.873-0.766,0.721
			c-6.493,1.592-11.259,4.949-16.282,7.977C206.229,151.275,204.854,150.801,205.195,148.527"/>
		<path class="st5" d="M223.409,174.695c0.217,8.258-2.928,16.418-6.055,20.494c-1.739,2.232-3.289,5.164-6.832,4.545
			c-2.955-5.16-4.76-13.498-13.276-11.764c3.173,1.439,6.827,4.002,7.949,7.584c1.866,5.914-1.71,12.918-6.079,14.396
			c-5.083,1.734-11.139-1.773-17.056-1.873c0.134-2.455-0.663-3.865-0.368-6.424c2.129-3.795,8.228-4.623,7.969-9.895
			c-0.058-0.859-0.313-1.623-0.741-2.229l1.861-0.045c4.044-1.482,6.145-4.979,9.86-7.215c0.824-0.471,2.127-0.398,2.671-1.484
			c1.509,3.787,3.72,8.012,9.462,6.43c1.291-2.096,3.705-3.143,3.424-6.824c-4.263,4.043-10.105,2.746-8.698-4.188
			c0.354-1.947,2.274-2.197,1.862-4.152c-2.447,0.859-3.454,3.432-5.289,4.947c-2.06,1.619-4.489,2.777-7.228,3.787
			c-0.969-7.398-7.926-10.432-16.494-9.311c-8.581-1.121-15.472,1.912-16.492,9.311c-2.701-1.01-5.188-2.168-7.216-3.787
			c-1.841-1.516-2.847-4.088-5.296-4.947c-0.363,1.955,1.543,2.205,1.872,4.152c1.41,6.934-4.44,8.23-8.703,4.188
			c-0.285,3.682,2.122,4.729,3.404,6.824c5.734,1.582,8.011-2.643,9.509-6.43c0.556,1.086,1.842,1.014,2.616,1.484
			c3.742,2.236,5.838,5.732,9.881,7.215l1.445,0.83c-0.188,0.43-0.289,0.9-0.292,1.443c-0.286,5.271,5.779,6.1,7.945,9.895
			c0.314,2.559-0.516,3.969-0.369,6.424c-5.95,0.1-11.972,3.607-17.071,1.873c-4.366-1.479-7.93-8.482-6.064-14.396
			c1.123-3.582,4.778-6.145,7.985-7.584c-8.558-1.734-10.36,6.604-13.289,11.764c-3.603,0.619-5.078-2.313-6.815-4.545
			c-3.181-4.076-6.316-12.236-6.101-20.494c3.644,1.115,6.213,4.219,11.004,3.057c-4.284-1.729-10.143-6.926-6.466-13.666
			c1.924,3.027,2.863,7.027,6.838,7.967c2.051-2.197,2.308-8.086,6.844-9.09c1.196-0.289,2.382-0.328,3.541-0.117
			c2.167,0.4,4.191,1.553,5.563,3.146c-0.357,1.082-1.414-0.252-2.269-0.795c-0.806-0.432-1.523-1.297-2.673-1.51
			c-2.966-0.543-6.789,0.395-7.219,2.67c-0.332,2.16,2.991,5.408,5.333,6.059c5.026,1.4,8.632-1.125,10.827-4.801
			c1.374-2.303,2.214-5.088,2.456-7.688c4.042,0.256,6.574,1.98,9.091,3.76h0.37c2.531-1.779,5.077-3.504,9.12-3.76
			c0.256,2.418,0.944,4.977,2.127,7.215c2.182,3.934,5.885,6.68,11.133,5.273c2.338-0.65,5.693-3.898,5.297-6.059
			c-0.396-2.275-4.22-3.213-7.182-2.67c-1.148,0.213-1.884,1.078-2.676,1.51c-0.832,0.543-1.943,1.877-2.299,0.795
			c1.438-1.594,3.393-2.746,5.586-3.146c1.15-0.211,2.349-0.172,3.548,0.117c4.464,1.004,4.831,6.893,6.813,9.09
			c4.037-0.939,4.98-4.939,6.85-7.967c3.646,6.74-2.164,11.938-6.451,13.666C217.204,178.914,219.76,175.811,223.409,174.695"/>
		<path class="st3" d="M223.014,211.469c-1.48,1.043-2.16-1.455-4.155-1.121c-2.521,8.012-7.647,15.381-13.663,18.729
			c0.026-0.041,0.026-0.104,0-0.141c3.646-5.193,6.7-10.717,9.123-17.08c0.756-2.057,1.297-4.436,3.036-6.051
			C220.378,206.557,221.963,208.725,223.014,211.469"/>
		<path class="st3" d="M216.198,180.393c0.281,3.682-2.133,4.729-3.424,6.824c-5.742,1.582-7.953-2.643-9.462-6.43
			c-0.544,1.086-1.847,1.014-2.671,1.484c-3.715,2.236-5.816,5.732-9.86,7.215c0.255-2.129,2.602-3.133,3.038-5.699
			c0.619-3.684-1.121-7.291-3.038-9.459c-2.737-1.512-7.03-1.416-10.43-2.234v-0.617c8.568-1.121,15.525,1.912,16.494,9.311
			c2.738-1.01,5.168-2.168,7.228-3.787c1.835-1.516,2.842-4.088,5.289-4.947c0.412,1.955-1.508,2.205-1.862,4.152
			C206.094,183.139,211.936,184.436,216.198,180.393"/>
		<path class="st6" d="M201.399,157.621c5.662-1.553,14.938,3.389,11.758,9.123c-2.633-2.375-4.617-5.588-9.084-5.695
			c-0.943-0.039-1.877,0.107-2.749,0.297c-3.459,0.75-6.277,3.092-7.865,5.766c-2.851-5.594,0.105-12.883,5.274-14.035
			c-0.076,2.596-2.107,5.154-1.121,7.578C199.416,160.283,199.489,158.195,201.399,157.621"/>
		<path class="st3" d="M208.218,166.357c0.396,2.16-2.959,5.408-5.297,6.059c-5.248,1.406-8.951-1.34-11.133-5.273l1.671-0.031
			c1.588-2.674,4.406-5.016,7.865-5.766l0.323,1.5c-2.192,0.4-4.148,1.553-5.586,3.146c0.355,1.082,1.467-0.252,2.299-0.795
			c0.792-0.432,1.527-1.297,2.676-1.51C203.998,163.145,207.821,164.082,208.218,166.357 M204.424,166.357
			c0.151,3.43-3.756,2.814-6.423,3.426c2.888,2.232,8.23,0.822,8.73-2.672c-0.358-2.484-6.061-2.488-7.241-0.754
			C200.825,167.514,202.629,165.957,204.424,166.357"/>
		<path class="st3" d="M204.827,229.289c0.109-0.066,0.245-0.133,0.368-0.213C205.19,229.225,205.003,229.289,204.827,229.289"/>
		<path class="st7" d="M198.001,169.783c2.667-0.611,6.574,0.004,6.423-3.426c-1.795-0.4-3.599,1.156-4.934,0
			c1.181-1.734,6.883-1.73,7.241,0.754C206.231,170.605,200.889,172.016,198.001,169.783"/>
		<path class="st8" d="M198.733,139.068c0.531,3.469,1.296,7.656,0.383,11.338c-8.576,2.053-15.727,5.518-18.575,13.281h-0.37
			c-2.846-7.764-10.018-11.229-18.586-13.281c-0.858-3.682-0.108-7.869,0.365-11.338c7.395,1.732,12.445,5.816,18.221,9.24
			c0,0.066,0,0.18,0,0.219c0.071-0.035,0.118-0.039,0.181-0.111c0.075,0.072,0.118,0.076,0.189,0.111c0-0.039,0-0.152,0.002-0.219
			C186.307,144.885,191.326,140.801,198.733,139.068"/>
		<path class="st3" d="M196.561,215.184c0.623,7.83-4.903,11.01-11.582,12.777c-4.265,0.893-6.177,0.645-9.24,0
			c-6.272-1.451-12.159-4.945-11.545-12.775l1.183,0.102c-0.063,8.166,8.014,8.232,14.976,9.391
			c6.973-1.158,15.015-1.225,14.99-9.391L196.561,215.184z"/>
		<path class="st9" d="M195.342,215.287c0.025,8.166-8.018,8.232-14.99,9.391c-6.962-1.158-15.038-1.225-14.976-9.391
			c3.54-3.063,8.554-4.686,13.57-6.311c0.464-0.141,0.936-0.328,1.405-0.469c0.469,0.141,0.939,0.328,1.415,0.469
			C186.741,210.602,191.788,212.225,195.342,215.287"/>
		<path class="st8" d="M190.781,174.328c1.917,2.168,3.657,5.775,3.038,9.459c-0.436,2.566-2.783,3.57-3.038,5.699l-1.861,0.045
			c-1.672-2.531-5.898-2.828-8.568-0.373c-2.917-2.67-7.755-2.092-8.979,1.158l-1.445-0.83c-0.25-2.129-2.6-3.133-3.032-5.699
			c-0.637-3.684,1.08-7.291,3.032-9.459c2.748-1.512,7.076-1.416,10.425-2.234C183.751,172.912,188.044,172.816,190.781,174.328"/>
		<path class="st3" d="M189.661,191.76c0.259,5.271-5.84,6.1-8.008,9.895c-0.256,2.559,0.541,3.969,0.43,6.424l-0.316,0.898
			c-0.477-0.141-0.946-0.328-1.415-0.469c-0.496,0.141-0.941,0.328-1.405,0.469l-0.29-0.898c-0.146-2.455,0.683-3.865,0.369-6.424
			c-2.166-3.795-8.231-4.623-7.945-9.895c0.003-0.543,0.105-1.014,0.292-1.443c1.225-3.25,6.063-3.828,8.979-1.158
			c2.67-2.455,6.896-2.158,8.568,0.373C189.349,190.137,189.604,190.9,189.661,191.76 M185.084,190.609
			c1.631-0.221,1.583,1.223,3.031,1.15c-0.753-3.037-3.968-2.16-6.957-1.668c0.068,0.045,0.097,0.084,0.135,0.154
			c-0.286-0.002-0.61-0.027-0.941-0.07c-0.323,0.043-0.643,0.068-0.942,0.07c0.004-0.07,0.08-0.109,0.12-0.154
			c-2.958-0.492-6.205-1.369-6.934,1.668c1.48,0.072,1.415-1.371,3.037-1.15c1.225,0.357,1.629,1.406,2.63,1.914
			c0.113,1.117,1.34,0.252,2.09,0.463c0.769-0.211,1.983,0.654,2.099-0.463C183.435,192.016,183.9,190.967,185.084,190.609"/>
		<path class="st10" d="M188.115,191.76c-1.448,0.072-1.4-1.371-3.031-1.15c-1.184,0.357-1.649,1.406-2.634,1.914
			c-0.115,1.117-1.33,0.252-2.099,0.463c-0.75-0.211-1.977,0.654-2.09-0.463c-1.001-0.508-1.405-1.557-2.63-1.914
			c-1.622-0.221-1.557,1.223-3.037,1.15c0.729-3.037,3.976-2.16,6.934-1.668c-0.04,0.045-0.116,0.084-0.12,0.154
			c0.299-0.002,0.619-0.027,0.942-0.07c0.331,0.043,0.655,0.068,0.941,0.07c-0.038-0.07-0.066-0.109-0.135-0.154
			C184.147,189.6,187.362,188.723,188.115,191.76"/>
		<path class="st3" d="M180.352,171.477v0.617c-3.349,0.818-7.677,0.723-10.425,2.234c-1.952,2.168-3.669,5.775-3.032,9.459
			c0.433,2.566,2.782,3.57,3.032,5.699c-4.043-1.482-6.139-4.979-9.881-7.215c-0.774-0.471-2.061-0.398-2.616-1.484
			c-1.498,3.787-3.774,8.012-9.509,6.43c-1.282-2.096-3.689-3.143-3.404-6.824c4.264,4.043,10.113,2.746,8.703-4.188
			c-0.329-1.947-2.235-2.197-1.872-4.152c2.449,0.859,3.455,3.432,5.296,4.947c2.027,1.619,4.515,2.777,7.216,3.787
			C164.88,173.389,171.771,170.355,180.352,171.477"/>
		<path class="st3" d="M178.656,208.078l0.29,0.898c-5.017,1.625-10.03,3.248-13.57,6.311l-1.183-0.102
			c0-0.213,0.026-0.436,0.071-0.678c-8.921,0.313-13.28-3.906-14.438-11.379c-10.47-3.783-20.279-14.33-18.188-29.559
			c0.499-3.713,2.451-7.328,3.755-11.041c-2.133-0.869-3.064,1.477-3.755,0.789c-0.66-2.738,3.704-4.898,3.755-7.936
			c0.065-2.236-1.691-2.525-1.484-4.582c3.218,0.035,6.488,0.1,8.342,1.545c-0.479,2.602,1.041,5.527,3.019,6.818
			c1.622-0.682,3.116-1.186,4.515-1.76l1.564,1.291c-3.357,1.711-5.639,4.77-3.797,8.049c2.636-2.375,4.611-5.588,9.093-5.695
			c0.979-0.039,1.881,0.107,2.743,0.297l-0.325,1.5c-1.159-0.211-2.345-0.172-3.541,0.117c-4.536,1.004-4.793,6.893-6.844,9.09
			c-3.975-0.939-4.914-4.939-6.838-7.967c-3.677,6.74,2.182,11.938,6.466,13.666c-4.791,1.162-7.36-1.941-11.004-3.057
			c-0.216,8.258,2.92,16.418,6.101,20.494c1.737,2.232,3.213,5.164,6.815,4.545c2.929-5.16,4.732-13.498,13.289-11.764
			c-3.207,1.439-6.862,4.002-7.985,7.584c-1.865,5.914,1.698,12.918,6.064,14.396C166.685,211.686,172.706,208.178,178.656,208.078"
			/>
		<path class="st3" d="M180.171,163.687c-2.517-1.779-5.049-3.504-9.091-3.76c-0.242,2.6-1.082,5.385-2.456,7.688l-1.338-0.504
			c2.787-5.594-0.172-12.883-5.336-14.035c0.105,2.596,2.199,5.154,1.121,7.578c-1.777-0.371-1.843-2.459-3.756-3.033
			c-2.418-0.688-5.479-0.172-7.968,1.109l-1.564-1.326c1.738-0.766,3.319-1.703,4.623-3.178c3.325-4.01,3.28-10.217,5.55-15.297
			l1.993,0.139c-0.474,3.469-1.224,7.656-0.365,11.338C170.153,152.459,177.325,155.924,180.171,163.687"/>
		<path class="st3" d="M167.286,167.111l1.338,0.504c-2.195,3.676-5.801,6.201-10.827,4.801c-2.342-0.65-5.665-3.898-5.333-6.059
			c0.43-2.275,4.253-3.213,7.219-2.67c1.149,0.213,1.867,1.078,2.673,1.51c0.854,0.543,1.912,1.877,2.269,0.795
			c-1.371-1.594-3.396-2.746-5.563-3.146l0.325-1.5C162.823,162.096,165.636,164.437,167.286,167.111 M156.253,166.357
			c1.859-0.4,3.604,1.156,4.947,0c-1.16-1.734-6.861-1.73-7.195,0.754c0.436,3.494,5.821,4.904,8.701,2.672
			C160.044,169.172,156.142,169.787,156.253,166.357"/>
		<path class="st6" d="M161.95,153.076c5.164,1.152,8.123,8.441,5.336,14.035c-1.65-2.674-4.463-5.016-7.899-5.766
			c-0.862-0.189-1.765-0.336-2.743-0.297c-4.481,0.107-6.457,3.32-9.093,5.695c-1.842-3.279,0.439-6.338,3.797-8.049
			c2.488-1.246,5.55-1.762,7.968-1.074c1.913,0.574,1.979,2.662,3.756,3.033C164.149,158.23,162.056,155.672,161.95,153.076"/>
		<path class="st7" d="M161.2,166.357c-1.344,1.156-3.088-0.4-4.947,0c-0.111,3.43,3.791,2.814,6.453,3.426
			c-2.88,2.232-8.266,0.822-8.701-2.672C154.339,164.627,160.04,164.623,161.2,166.357"/>
		<path class="st3" d="M155.521,229.076c0.113,0.08,0.26,0.146,0.369,0.213C155.736,229.289,155.562,229.225,155.521,229.076"/>
		<path class="st3" d="M155.521,148.527c0.332,2.273-1.039,2.748-1.516,4.18c-5.082-3.027-9.813-6.385-16.307-7.977
			c-0.656,0.152-0.717-0.283-0.756-0.721C144.887,143.697,149.634,146.691,155.521,148.527"/>
		<path class="st3" d="M155.521,228.936c-0.029,0.037-0.029,0.1,0,0.141c-6.019-3.348-11.183-10.717-13.682-18.729
			c-1.976-0.334-2.658,2.164-4.141,1.121c1.053-2.744,2.603-4.912,5.703-5.664c1.654,1.615,2.235,3.994,3.025,6.051
			C148.817,218.219,151.843,223.742,155.521,228.936"/>
		<path class="st3" d="M139.611,227.416c3.103,4.912,7.896,8.018,11.373,12.49c-8.411-0.863-14.042-4.41-17.075-10.617
			c-1.448-0.316-0.464,1.842-1.926,1.553c-2.329-4.254-4.926-8.227-6.05-13.676c-0.799,0.762-0.179,2.885-1.548,3.037
			c-4.582-4.662-4.188-14.33-4.905-22.775c-0.116-1.301-0.94-3.467,0-5.277c-0.685-1.18-0.56,1.662-1.923,1.123
			c-0.549-8.152,1.702-16.814,4.58-22.732c-0.28-0.754-1.221,1.041-2.657,0.359c1.186-5.096,4.755-7.871,8.335-10.617
			c0.615-0.1,0.684,0.371,1.176,0.371c-1.066,1.254-1.611,2.998-2.299,4.543c0.543,1.014,3.24-0.143,3.796,0.795
			c-3.183,4.297-4.84,10.072-5.308,17.031c0.384,0.729,1.579-0.943,3.029-0.354c-3.184,9.234-0.614,22.195,2.278,29.951
			c1.369-0.293,1.619-1.67,3.775-1.152C136.036,217.564,136.722,222.865,139.611,227.416"/>
		<path class="st3" d="M131.983,117.416c2.938,4.254,6.9,8.338,6.858,14.035c-0.026,2.566-1.281,5.164-1.899,7.975
			c-2.285-1.553-0.119-2.99-0.377-4.902c-0.239-1.699-1.974-4.23-3.419-6.461c-4.585-7.117-9.923-17.865-9.122-28.447
			c0.069-0.568,0.361-2.123,0.787-2.305c0.285-0.043,0.323,0.182,0.369,0.396C126.692,105.283,128.063,111.711,131.983,117.416"/>
		<path class="st3" d="M130.873,126.945c1.234,4.65,5.056,9.855,2.273,15.158c-6.992-2.059-2.014-9.457-3.063-15.59
			C130.55,126.514,130.804,126.617,130.873,126.945"/>
		<path class="st3" d="M125.181,139.068c0.508,3.068,4.183,6.316,3.811,9.459c-0.242,1.588-2.483,3.893-3.058,4.549
			c-4.762,5.301-8.484,10.17-12.158,16.305c-0.075,1.732,1.728,1.596,1.55,3.402c-0.324,0.721-0.619,1.436-0.987,2.125l-1.287-0.58
			c-0.512-1.623-1.704-2.633-1.881-4.545c3.726-5.414,8.194-12.592,12.483-16.707c3.652-3.545,0.44-6.574,0-12.494
			c-0.213-2.814,0.371-5.193,0.879-7.324l1.078,0.25C125.212,135.314,124.879,137.186,125.181,139.068"/>
		<path class="st3" d="M128.86,235.068l-1.238,0.727c-0.182-0.295-0.351-0.553-0.561-0.803c-1.529-0.035-0.731,2.303-2.676,1.873
			c-4.843-5.479-8.486-12.188-10.946-20.055c-0.966-0.98-1.218,2.057-2.657,1.873c-1.588-3.865-2.148-8.842-2.276-14.184h1.121
			c0.062,2.852,0.428,5.518,1.155,7.727c0.709,1.037,2.309-1.658,3.426-0.371c0.939,8.857,5.271,14.439,9.084,20.471
			c1.459,1.479,1.926-2.168,3.4-0.73C127.377,232.836,128.063,233.951,128.86,235.068"/>
		<path class="st3" d="M126.692,125.785c0.365,2.705-0.444,5.197-1.082,7.723l-1.078-0.25c0.43-1.656,0.785-3.068,0.648-4.441
			c-0.173-2.201-2.361-5.477-3.394-7.971c-2.18-5.088-3.468-9.387-3.038-15.563c0.535-7.824,2.82-15.186,5.885-21.295l0.76,0.404
			c-4.652,9.422-4.971,24.002-1.369,34.174C124.879,120.945,126.398,123.479,126.692,125.785"/>
		<path class="st3" d="M113.051,174.328l1.287,0.58c-2.373,5.305-4.649,10.727-6.595,16.49c0.619,0.877,2.634,0.434,2.635,1.877
			c-0.473,3.361-0.866,7.396-0.751,11.225h-1.121c-0.077-2.525-0.074-5.154,0-7.799c-1.372-0.826-3.212-1.086-4.188-2.309v-1.117
			C107.743,187.471,109.973,180.428,113.051,174.328"/>
	</g>
</g>
</svg>
