<?xml version="1.0" encoding="utf-8"?>
<!-- Generator: Adobe Illustrator 22.1.0, SVG Export Plug-In . SVG Version: 6.00 Build 0)  -->
<svg version="1.1" id="Layer_1" xmlns="http://www.w3.org/2000/svg" xmlns:xlink="http://www.w3.org/1999/xlink" x="0px" y="0px"
	 viewBox="0 0 1233 93" style="enable-background:new 0 0 1233 93;" xml:space="preserve">
<style type="text/css">
	.st0{display:none;}
	.st1{fill:none;}
	.st2{fill:url(#SVGID_1_);}
	.st3{fill:url(#SVGID_2_);}
	.st4{fill:url(#SVGID_3_);}
	.st5{fill:url(#SVGID_4_);}
	.st6{fill:url(#SVGID_5_);}
	.st7{fill:url(#SVGID_6_);}
	.st8{fill:none;stroke:#FFFFFF;stroke-width:3;stroke-miterlimit:10;}
	.st9{clip-path:url(#SVGID_8_);fill:url(#SVGID_9_);}
	.st10{clip-path:url(#SVGID_11_);fill:url(#SVGID_12_);}
	.st11{clip-path:url(#SVGID_14_);fill:url(#SVGID_15_);}
	.st12{clip-path:url(#SVGID_17_);fill:url(#SVGID_18_);}
	.st13{clip-path:url(#SVGID_20_);fill:url(#SVGID_21_);}
	.st14{clip-path:url(#SVGID_23_);fill:url(#SVGID_24_);}
	.st15{clip-path:url(#SVGID_26_);fill:url(#SVGID_27_);}
	.st16{clip-path:url(#SVGID_29_);fill:url(#SVGID_30_);}
	.st17{clip-path:url(#SVGID_32_);fill:url(#SVGID_33_);}
	.st18{clip-path:url(#SVGID_35_);fill:url(#SVGID_36_);}
	.st19{clip-path:url(#SVGID_38_);fill:url(#SVGID_39_);}
	.st20{clip-path:url(#SVGID_41_);fill:url(#SVGID_42_);}
	.st21{clip-path:url(#SVGID_44_);fill:url(#SVGID_45_);}
	.st22{clip-path:url(#SVGID_47_);fill:url(#SVGID_48_);}
	.st23{clip-path:url(#SVGID_50_);fill:url(#SVGID_51_);}
	.st24{clip-path:url(#SVGID_53_);fill:url(#SVGID_54_);}
	.st25{clip-path:url(#SVGID_56_);fill:url(#SVGID_57_);}
	.st26{clip-path:url(#SVGID_59_);fill:url(#SVGID_60_);}
	.st27{clip-path:url(#SVGID_62_);fill:url(#SVGID_63_);}
	.st28{clip-path:url(#SVGID_65_);fill:url(#SVGID_66_);}
	.st29{clip-path:url(#SVGID_68_);fill:url(#SVGID_69_);}
	.st30{clip-path:url(#SVGID_71_);fill:url(#SVGID_72_);}
	.st31{clip-path:url(#SVGID_74_);fill:url(#SVGID_75_);}
	.st32{clip-path:url(#SVGID_77_);fill:url(#SVGID_78_);}
	.st33{clip-path:url(#SVGID_80_);fill:url(#SVGID_81_);}
	.st34{clip-path:url(#SVGID_83_);fill:url(#SVGID_84_);}
	.st35{clip-path:url(#SVGID_86_);fill:url(#SVGID_87_);}
	.st36{clip-path:url(#SVGID_89_);fill:url(#SVGID_90_);}
	.st37{clip-path:url(#SVGID_92_);fill:url(#SVGID_93_);}
	.st38{clip-path:url(#SVGID_95_);fill:url(#SVGID_96_);}
	.st39{clip-path:url(#SVGID_98_);fill:url(#SVGID_99_);}
	.st40{clip-path:url(#SVGID_101_);fill:url(#SVGID_102_);}
	.st41{fill:#FFFFFF;stroke:#FAAF40;stroke-miterlimit:10;}
	.st42{fill:url(#SVGID_103_);}
	.st43{fill:url(#SVGID_104_);}
	.st44{fill:url(#SVGID_105_);}
	.st45{fill:url(#SVGID_106_);}
	.st46{fill:url(#SVGID_107_);}
	.st47{fill:url(#SVGID_108_);}
	.st48{fill:none;stroke:#FFFFFF;stroke-miterlimit:10;}
	.st49{fill:#40B6DC;}
	.st50{fill:#697A7F;}
	.st51{fill:#CC3438;}
	.st52{fill:#DEB135;}
	.st53{fill:#FFFFFF;}
</style>
<rect class="st0" width="1233" height="93"/>
<g>
	<rect class="st1" width="810" height="93"/>
	<g>
		
			<image style="overflow:visible;opacity:0.34;enable-background:new    ;" width="337" height="80" xlink:href="BD47D25A5B223440.png"  transform="matrix(1 0 0 1 18 15)">
		</image>
		<g>
			<g>
				
					<linearGradient id="SVGID_1_" gradientUnits="userSpaceOnUse" x1="28.548" y1="45.7245" x2="328.2101" y2="45.7245" gradientTransform="matrix(1 0 0 -1 0 94)">
					<stop  offset="0" style="stop-color:#992520"/>
					<stop  offset="0.7098" style="stop-color:#B22825"/>
					<stop  offset="1" style="stop-color:#BE2927"/>
				</linearGradient>
				<path class="st2" d="M72.4,34.6c-1.2-0.5-2.3-1-3.3-1.3c-1.1-0.3-2.3-0.5-3.8-0.5H48.9c-1.4,0-2.3,0.1-2.7,0.4
					c-0.4,0.2-0.6,0.8-0.6,1.7v2.6c0,0.9,0.2,1.4,0.6,1.7s1.3,0.4,2.7,0.4h12.5c3.9,0,6.8,0.7,8.7,2.2c1.9,1.4,2.8,3.8,2.8,7.1V60
					c0,3.8-0.8,6.7-2.4,8.5c-1.6,1.8-4.5,2.8-8.6,2.8H30.2l-1.5-8.9c1.1,0.4,2.1,0.7,3.2,0.9c1.1,0.2,2.3,0.4,3.7,0.4h17
					c1.3,0,2.2-0.1,2.7-0.4c0.4-0.2,0.6-0.8,0.6-1.7v-3.2c0-0.8-0.2-1.4-0.6-1.6s-1.3-0.4-2.7-0.4H38.3c-3.6,0-6.1-0.7-7.6-2.2
					c-1.4-1.4-2.2-4.1-2.2-7.8V36.2c0-3.6,0.8-6.3,2.5-8.1c1.7-1.9,4.1-2.8,7.2-2.8h32.6L72.4,34.6z"/>
				
					<linearGradient id="SVGID_2_" gradientUnits="userSpaceOnUse" x1="28.5479" y1="45.724" x2="328.21" y2="45.724" gradientTransform="matrix(1 0 0 -1 0 94)">
					<stop  offset="0" style="stop-color:#992520"/>
					<stop  offset="0.7098" style="stop-color:#B22825"/>
					<stop  offset="1" style="stop-color:#BE2927"/>
				</linearGradient>
				<path class="st3" d="M97.7,63.4c0,2.1,0.1,3.7,0.3,4.7c0.2,1,0.6,2.1,1.1,3.2H78.7c0.5-1,0.8-2,1.1-3.2c0.2-1.2,0.4-2.8,0.4-4.7
					V33.2c0-2.1-0.1-3.7-0.4-4.8c-0.3-1.1-0.8-2.1-1.5-3.1H116c3.8,0,6.7,0.8,8.7,2.3c2,1.6,3,4.5,3,8.9v7.2c0,4.4-1,7.3-2.9,8.9
					c-1.9,1.6-4.9,2.3-8.7,2.3H97.7V63.4z M97.7,47.3h9.2c1.3,0,2.1-0.3,2.6-0.8c0.4-0.5,0.6-1.6,0.6-3.2v-6.5
					c0-1.6-0.2-2.7-0.6-3.2c-0.4-0.5-1.3-0.8-2.6-0.8h-9.2C97.7,32.9,97.7,47.3,97.7,47.3z"/>
				
					<linearGradient id="SVGID_3_" gradientUnits="userSpaceOnUse" x1="28.5479" y1="45.7235" x2="328.21" y2="45.7235" gradientTransform="matrix(1 0 0 -1 0 94)">
					<stop  offset="0" style="stop-color:#992520"/>
					<stop  offset="0.7098" style="stop-color:#B22825"/>
					<stop  offset="1" style="stop-color:#BE2927"/>
				</linearGradient>
				<path class="st4" d="M164.3,43.7V33.2c0-2.1-0.1-3.7-0.3-4.7c-0.2-1-0.6-2.1-1.1-3.2h20.4c-0.5,1-0.8,2-1.1,3.2
					c-0.2,1.2-0.4,2.8-0.4,4.7v30.2c0,2.1,0.1,3.7,0.3,4.7c0.2,1,0.6,2.1,1.1,3.2h-20.4c0.5-1,0.8-2,1.1-3.2
					c0.2-1.2,0.4-2.8,0.4-4.7V51.3h-13.1v12.1c0,2.1,0.1,3.7,0.3,4.7c0.2,1,0.6,2.1,1.1,3.2h-20.4c0.5-1,0.8-2,1.1-3.2
					c0.2-1.2,0.4-2.8,0.4-4.7V33.2c0-2.1-0.1-3.7-0.3-4.7c-0.2-1-0.6-2.1-1.1-3.2h20.4c-0.5,1-0.8,2-1.1,3.2
					c-0.2,1.2-0.4,2.8-0.4,4.7v10.5C151.2,43.7,164.3,43.7,164.3,43.7z"/>
				
					<linearGradient id="SVGID_4_" gradientUnits="userSpaceOnUse" x1="28.5479" y1="45.724" x2="328.21" y2="45.724" gradientTransform="matrix(1 0 0 -1 0 94)">
					<stop  offset="0" style="stop-color:#992520"/>
					<stop  offset="0.7098" style="stop-color:#B22825"/>
					<stop  offset="1" style="stop-color:#BE2927"/>
				</linearGradient>
				<path class="st5" d="M189.6,71.3c0.5-1,0.8-2,1.1-3.2c0.2-1.2,0.4-2.8,0.4-4.7V33.2c0-2.1-0.1-3.7-0.3-4.7
					c-0.2-1-0.6-2.1-1.1-3.2h20.4c-0.5,1-0.8,2-1.1,3.2c-0.2,1.2-0.4,2.8-0.4,4.7v30.2c0,2.1,0.1,3.7,0.3,4.7c0.2,1,0.6,2.1,1.1,3.2
					C210.1,71.3,189.6,71.3,189.6,71.3z"/>
				
					<linearGradient id="SVGID_5_" gradientUnits="userSpaceOnUse" x1="28.5479" y1="45.7235" x2="328.21" y2="45.7235" gradientTransform="matrix(1 0 0 -1 0 94)">
					<stop  offset="0" style="stop-color:#992520"/>
					<stop  offset="0.7098" style="stop-color:#B22825"/>
					<stop  offset="1" style="stop-color:#BE2927"/>
				</linearGradient>
				<path class="st6" d="M225.7,33.2L225.5,63c0,2.6,0.1,4.3,0.3,5.3c0.2,0.9,0.7,1.9,1.4,3h-11.1c0.8-1.1,1.2-2.1,1.4-3
					c0.2-0.9,0.3-2.7,0.3-5.3V33.5c0-2.6-0.1-4.3-0.3-5.3c-0.2-0.9-0.7-1.9-1.4-3h24.7l18.7,37.6l0.2-29.3c0-2.6-0.1-4.3-0.3-5.3
					c-0.2-0.9-0.7-1.9-1.4-3h11.1c-0.8,1.1-1.2,2.1-1.4,3c-0.2,0.9-0.3,2.7-0.3,5.3v37.8h-22.8L225.7,33.2z"/>
				
					<linearGradient id="SVGID_6_" gradientUnits="userSpaceOnUse" x1="28.5479" y1="45.724" x2="328.21" y2="45.724" gradientTransform="matrix(1 0 0 -1 0 94)">
					<stop  offset="0" style="stop-color:#992520"/>
					<stop  offset="0.7098" style="stop-color:#B22825"/>
					<stop  offset="1" style="stop-color:#BE2927"/>
				</linearGradient>
				<path class="st7" d="M302.7,38.6l7.2-7.3c1.2-1.3,2.1-2.3,2.6-3.2c0.5-0.9,0.8-1.8,1-2.9h14.3c-1.5,1-2.8,2-4,3
					c-1.2,1.1-2.6,2.4-4.1,4l-12.2,12.6L322.4,65c1.2,1.7,2.3,3,3,3.8c0.8,0.9,1.7,1.7,2.8,2.5H303c0-1.7-0.1-2.9-0.4-3.6
					s-1-1.9-2.3-3.6l-5-6.8l-7.8,8.1c-2.3,2.3-3.5,4.3-3.7,5.9h-13.6c1.8-1.3,3-2.3,3.6-2.9s2-1.9,4-4l13-13.3l-14.8-19.6
					c-1.3-1.7-2.3-2.9-2.9-3.6c-0.6-0.7-1.8-1.6-3.5-2.7h25.9c0,1.2,0.1,2.2,0.4,3.1c0.3,0.8,0.7,1.6,1.3,2.4L302.7,38.6z"/>
			</g>
			<g>
				<path class="st8" d="M72.4,34.6c-1.2-0.5-2.3-1-3.3-1.3c-1.1-0.3-2.3-0.5-3.8-0.5H48.9c-1.4,0-2.3,0.1-2.7,0.4
					c-0.4,0.2-0.6,0.8-0.6,1.7v2.6c0,0.9,0.2,1.4,0.6,1.7s1.3,0.4,2.7,0.4h12.5c3.9,0,6.8,0.7,8.7,2.2c1.9,1.4,2.8,3.8,2.8,7.1V60
					c0,3.8-0.8,6.7-2.4,8.5c-1.6,1.8-4.5,2.8-8.6,2.8H30.2l-1.5-8.9c1.1,0.4,2.1,0.7,3.2,0.9c1.1,0.2,2.3,0.4,3.7,0.4h17
					c1.3,0,2.2-0.1,2.7-0.4c0.4-0.2,0.6-0.8,0.6-1.7v-3.2c0-0.8-0.2-1.4-0.6-1.6s-1.3-0.4-2.7-0.4H38.3c-3.6,0-6.1-0.7-7.6-2.2
					c-1.4-1.4-2.2-4.1-2.2-7.8V36.2c0-3.6,0.8-6.3,2.5-8.1c1.7-1.9,4.1-2.8,7.2-2.8h32.6L72.4,34.6z"/>
				<path class="st8" d="M97.7,63.4c0,2.1,0.1,3.7,0.3,4.7c0.2,1,0.6,2.1,1.1,3.2H78.7c0.5-1,0.8-2,1.1-3.2c0.2-1.2,0.4-2.8,0.4-4.7
					V33.2c0-2.1-0.1-3.7-0.4-4.8c-0.3-1.1-0.8-2.1-1.5-3.1H116c3.8,0,6.7,0.8,8.7,2.3c2,1.6,3,4.5,3,8.9v7.2c0,4.4-1,7.3-2.9,8.9
					c-1.9,1.6-4.9,2.3-8.7,2.3H97.7V63.4z M97.7,47.3h9.2c1.3,0,2.1-0.3,2.6-0.8c0.4-0.5,0.6-1.6,0.6-3.2v-6.5
					c0-1.6-0.2-2.7-0.6-3.2c-0.4-0.5-1.3-0.8-2.6-0.8h-9.2C97.7,32.9,97.7,47.3,97.7,47.3z"/>
				<path class="st8" d="M164.3,43.7V33.2c0-2.1-0.1-3.7-0.3-4.7c-0.2-1-0.6-2.1-1.1-3.2h20.4c-0.5,1-0.8,2-1.1,3.2
					c-0.2,1.2-0.4,2.8-0.4,4.7v30.2c0,2.1,0.1,3.7,0.3,4.7c0.2,1,0.6,2.1,1.1,3.2h-20.4c0.5-1,0.8-2,1.1-3.2
					c0.2-1.2,0.4-2.8,0.4-4.7V51.3h-13.1v12.1c0,2.1,0.1,3.7,0.3,4.7c0.2,1,0.6,2.1,1.1,3.2h-20.4c0.5-1,0.8-2,1.1-3.2
					c0.2-1.2,0.4-2.8,0.4-4.7V33.2c0-2.1-0.1-3.7-0.3-4.7c-0.2-1-0.6-2.1-1.1-3.2h20.4c-0.5,1-0.8,2-1.1,3.2
					c-0.2,1.2-0.4,2.8-0.4,4.7v10.5C151.2,43.7,164.3,43.7,164.3,43.7z"/>
				<path class="st8" d="M189.6,71.3c0.5-1,0.8-2,1.1-3.2c0.2-1.2,0.4-2.8,0.4-4.7V33.2c0-2.1-0.1-3.7-0.3-4.7
					c-0.2-1-0.6-2.1-1.1-3.2h20.4c-0.5,1-0.8,2-1.1,3.2c-0.2,1.2-0.4,2.8-0.4,4.7v30.2c0,2.1,0.1,3.7,0.3,4.7c0.2,1,0.6,2.1,1.1,3.2
					C210.1,71.3,189.6,71.3,189.6,71.3z"/>
				<path class="st8" d="M225.7,33.2L225.5,63c0,2.6,0.1,4.3,0.3,5.3c0.2,0.9,0.7,1.9,1.4,3h-11.1c0.8-1.1,1.2-2.1,1.4-3
					c0.2-0.9,0.3-2.7,0.3-5.3V33.5c0-2.6-0.1-4.3-0.3-5.3c-0.2-0.9-0.7-1.9-1.4-3h24.7l18.7,37.6l0.2-29.3c0-2.6-0.1-4.3-0.3-5.3
					c-0.2-0.9-0.7-1.9-1.4-3h11.1c-0.8,1.1-1.2,2.1-1.4,3c-0.2,0.9-0.3,2.7-0.3,5.3v37.8h-22.8L225.7,33.2z"/>
				<path class="st8" d="M302.7,38.6l7.2-7.3c1.2-1.3,2.1-2.3,2.6-3.2c0.5-0.9,0.8-1.8,1-2.9h14.3c-1.5,1-2.8,2-4,3
					c-1.2,1.1-2.6,2.4-4.1,4l-12.2,12.6L322.4,65c1.2,1.7,2.3,3,3,3.8c0.8,0.9,1.7,1.7,2.8,2.5H303c0-1.7-0.1-2.9-0.4-3.6
					s-1-1.9-2.3-3.6l-5-6.8l-7.8,8.1c-2.3,2.3-3.5,4.3-3.7,5.9h-13.6c1.8-1.3,3-2.3,3.6-2.9s2-1.9,4-4l13-13.3l-14.8-19.6
					c-1.3-1.7-2.3-2.9-2.9-3.6c-0.6-0.7-1.8-1.6-3.5-2.7h25.9c0,1.2,0.1,2.2,0.4,3.1c0.3,0.8,0.7,1.6,1.3,2.4L302.7,38.6z"/>
			</g>
		</g>
	</g>
	<g>
		
			<image style="overflow:visible;opacity:0.34;enable-background:new    ;" width="167" height="167" xlink:href="BD47D25A5B223441.png"  transform="matrix(1 0 0 1 286 -35)">
		</image>
		<g>
			<g>
				<g>
					<g>
						<defs>
							<path id="SVGID_7_" d="M362.7,7.9C362.7,7.9,362.7,7.9,362.7,7.9L362.7,7.9C339.5,14.1,327,32,327,32s4.3,22.4,15.7,39.1
								c0,0,2.3,0.6,6.1,1.2c7.4,1.2,20.7,2.4,34.1-1.2c11.4-16.6,15.7-39,15.7-39S385.9,14.1,362.7,7.9L362.7,7.9
								C362.7,7.9,362.7,7.9,362.7,7.9"/>
						</defs>
						<clipPath id="SVGID_8_">
							<use xlink:href="#SVGID_7_"  style="overflow:visible;"/>
						</clipPath>
						
							<linearGradient id="SVGID_9_" gradientUnits="userSpaceOnUse" x1="276.6995" y1="294.276" x2="277.6994" y2="294.276" gradientTransform="matrix(54.8945 -41.5868 -41.5868 -54.8945 -2615.3687 27722.8027)">
							<stop  offset="0" style="stop-color:#F1A339"/>
							<stop  offset="0.4419" style="stop-color:#F4BF2A"/>
							<stop  offset="0.7472" style="stop-color:#F6D51F"/>
							<stop  offset="1" style="stop-color:#F1B930"/>
						</linearGradient>
						<polygon class="st9" points="353,109.1 430.6,50.3 372.4,-26.5 294.8,32.3 						"/>
					</g>
				</g>
				<g>
					<g>
						<defs>
							<path id="SVGID_10_" d="M362.7,10.1C362.7,10.1,362.7,10.1,362.7,10.1C362.7,10.1,362.7,10.1,362.7,10.1
								c-21.6,5.7-33.4,22.5-33.4,22.5s4,20.9,14.7,36.4c0,0,2.1,0.6,5.6,1.1c6.9,1.1,19.3,2.2,31.8-1.1
								c10.6-15.5,14.7-36.4,14.7-36.4S384.4,15.8,362.7,10.1C362.7,10.1,362.7,10.1,362.7,10.1C362.7,10.1,362.7,10.1,362.7,10.1"
								/>
						</defs>
						<clipPath id="SVGID_11_">
							<use xlink:href="#SVGID_10_"  style="overflow:visible;"/>
						</clipPath>
						
							<linearGradient id="SVGID_12_" gradientUnits="userSpaceOnUse" x1="278.7245" y1="291.2678" x2="279.7241" y2="291.2678" gradientTransform="matrix(66.7995 0 0 -66.7995 -18289.3164 19497.8086)">
							<stop  offset="0" style="stop-color:#242120"/>
							<stop  offset="0.4551" style="stop-color:#595959"/>
							<stop  offset="1" style="stop-color:#262423"/>
						</linearGradient>
						<rect x="329.3" y="10.1" class="st10" width="66.8" height="62.3"/>
					</g>
				</g>
				<g>
					<g>
						<defs>
							<path id="SVGID_13_" d="M362.7,11.8C362.7,11.8,362.7,11.8,362.7,11.8C362.7,11.8,362.7,11.8,362.7,11.8
								c-20.5,5.4-31.5,21.3-31.5,21.3S335,52.8,345,67.5c0,0,2,0.5,5.3,1.1c6.6,1.1,18.3,2.1,30-1.1c10.1-14.7,13.9-34.4,13.9-34.4
								S383.2,17.2,362.7,11.8L362.7,11.8C362.7,11.8,362.7,11.8,362.7,11.8"/>
						</defs>
						<clipPath id="SVGID_14_">
							<use xlink:href="#SVGID_13_"  style="overflow:visible;"/>
						</clipPath>
						
							<linearGradient id="SVGID_15_" gradientUnits="userSpaceOnUse" x1="276.6837" y1="294.2643" x2="277.6839" y2="294.2643" gradientTransform="matrix(54.8606 -41.5612 -41.5612 -54.8605 -2613.1909 27704.373)">
							<stop  offset="0" style="stop-color:#F1A339"/>
							<stop  offset="0.4419" style="stop-color:#F4BF2A"/>
							<stop  offset="0.7472" style="stop-color:#F6D51F"/>
							<stop  offset="1" style="stop-color:#F1B930"/>
						</linearGradient>
						<polygon class="st11" points="354.2,101.1 422.6,49.2 371.3,-18.6 302.8,33.3 						"/>
					</g>
				</g>
				<g>
					<g>
						<defs>
							<path id="SVGID_16_" d="M362.7,12.7C362.7,12.7,362.7,12.7,362.7,12.7L362.7,12.7c-19.8,5.3-30.6,20.6-30.6,20.6
								s3.7,19.2,13.4,33.4c0,0,1.9,0.5,5.2,1c6.4,1,17.7,2.1,29.1-1c9.7-14.2,13.4-33.4,13.4-33.4S382.5,17.9,362.7,12.7
								L362.7,12.7C362.7,12.7,362.7,12.7,362.7,12.7"/>
						</defs>
						<clipPath id="SVGID_17_">
							<use xlink:href="#SVGID_16_"  style="overflow:visible;"/>
						</clipPath>
						
							<linearGradient id="SVGID_18_" gradientUnits="userSpaceOnUse" x1="288.0227" y1="291.8155" x2="289.0224" y2="291.8155" gradientTransform="matrix(0 52.4856 52.4856 0 -14953.3809 -15100.9658)">
							<stop  offset="0" style="stop-color:#992520"/>
							<stop  offset="0.7098" style="stop-color:#B22825"/>
							<stop  offset="1" style="stop-color:#BE2927"/>
						</linearGradient>
						<rect x="332.2" y="12.7" class="st12" width="61.1" height="57.1"/>
					</g>
				</g>
				<g>
					<g>
						<defs>
							<path id="SVGID_19_" d="M365.7,29.1c-0.5,0.5-0.9,0.9-1.4,1.4c-0.3,0.3-0.2,1-0.9,0.8c-0.4-0.1-0.4-0.7-0.1-1.2
								c0.4-0.6,0.9-1.5,0.3-1.8c-0.5-0.3-0.9,0.1-0.9,0.1s0.9,0,0.7,0.9c-0.2,0.7-0.5,0.6-0.8,1c-0.4,0.7-0.2,5.5-0.4,6.3
								c-0.4,1.7-1.7,1.7-3,2.5c-0.2,0.4,0,0.8,0.1,1.2c-0.3-0.3-0.8-0.7-0.5-1.4c-0.2-0.6-0.7-0.5-1.2-0.5c-1.1-0.1-2-1-2-2.2
								c-0.3,0.4-0.8,0.7-1.5,0.9c-1.2,0.3-2.8-0.2-3.5-0.8c0.7,0.1,1-0.2,1.4-0.5c-0.7,0.1-1.1,0.1-1.5-0.1
								c0.3-0.1,0.7-0.6,0.3-0.9c-0.4,0.2-0.9,0.8-1.7,0.7c-0.2,0.3-0.5,0.5-0.5,1c0.4,0,0.8-0.4,1-0.6c0,0.5-0.5,0.6-0.7,0.8
								c-0.9,0.8-2,2.6-1.1,3.9c0.2-0.7,0.9-1.1,1.6-1c-0.8,0.3-1.4,0.8-1.4,2c-0.2-0.2-0.3-0.6-0.5-0.8c-0.8,2.2-0.1,4.1,1.4,5.2
								c-0.1-1,0.3-1.9,1.2-2c-1.3,1-0.4,1.8,0.2,2c0.3,0,0.1-0.3,0.4-0.4c-0.5,0.7,0.1,0.6-0.1,1.1c0.2,0,0.5-0.4,0.9-0.4
								c-0.4,0-0.5-0.4-0.7-0.6c0.4,0,0.6,0,0.8-0.1c0.2-0.1,0.4-0.1,0.7,0c-0.2-0.5-0.6-0.5-0.5-1.1c1.1,0.5,2.4,0.2,3.5,0
								c-0.7,0.4-1.8,0.6-2.8,0.5c0.1,0.6,0.8,0.6,1,1c-0.9-0.1-1.3-0.1-1.6-0.1c-0.2,0-0.3,0-0.6,0c0.2,0.2,0.7,0.2,0.8,0.4
								c-0.4,0.3-1,0.4-1.2,0.8c-0.5,0-1,0-1.4,0c-1.3,0.1-2.7,0.9-3.9,0.8c-0.1-0.1-0.2-0.3-0.4-0.5c-0.2-0.2-1.6-0.3-1.9-0.8
								c-0.3-0.4-2.5-0.7-2.4,0.6c0.1,0.6,1.5,0.6,2,0.5c-0.3,0.6-1.2,0.8-2,0.7c0,0-1.3,0-1.3,0.6c0,0.3,0.6,0.8,1,0.8
								c0.3,0,0.6-0.2,0.9-0.2c0.5,0,0.9,0.1,1.1,0.3c-0.3,0.1-0.5,0.5-0.9,0.8c-0.4,0-0.7,0.1-0.8,0.4c-0.2,0.7,0.9,1.1,1.1,0.9
								c0.3-0.5,0.8-1,1.7-0.6c0.1,0.5-0.5,0.8-0.2,1.3c0.7,0,1.2-0.3,1.5-0.9c0.1-0.1,0.1-0.4,0.1-0.5c0.4-1.3,2.5,0.1,3.5,0.3
								c-0.3-0.2-0.5-0.5-0.4-0.8c1.2,0.1,3.2,1.2,4,0.5c-0.7-0.3-1.2-1-1.5-1.5c1.5,0.4,3.2,0.8,4.9,0.4c-0.1-0.2-0.5-0.2-0.8-0.6
								c-0.2-0.4-0.1-1.1,0.5-1.2c0,0.2-0.1,0.2,0,0.3c0.5,0.2,1-0.4,1.4-0.5c0.3,0,0.7,0.1,1.1,0.2c0.9,0.1,1.8,0.2,2.6,0.1
								c0.8,0,1.5-0.6,2.3-0.6c1-0.1,1.6,0,2.4,0.5c0.8,0.5,0.5,2.6-1.7,4.6c0.8,0.2,0.4,0.7,0.3,2c-0.1,0.9,1.3,1.7,2.2,1.7
								c1.8,0.1,3.4-0.9,4.5-1.3c0.2,0.1,0.6,2.4-0.3,3.3c-0.2,0.2-0.8,1,0.1,0.7c-0.4,0.7-1.9,0.5-2.8,0.7c-0.6,0.1-1,0.5-1.4,0.8
								c-0.9-0.2-2.9,0.9-1.9,2c0.4,0.4,0.6,0.2,1-0.1c0.5-0.3,0.8-0.7,1.2-0.4c-0.6,0.3-0.7,0.5-0.5,1c-0.6,0.1-1.1,0.4-1.1,1
								c0.1,0.9,1.4,0.7,1.8,0.2c0.4-0.5,0.2-1.1,0.5-1.3c0.4-0.1,0.9,0.1,1,0.4c-0.8,0.5-0.7,2,0.1,2.2c0.5,0.1,1-0.1,1.2-0.6
								c0.1-0.4-0.3-1.1-0.1-1.6c0.2-0.5,0.6-0.3,0.9-0.6c0.3-0.2,0.4-0.6,0.7-0.8c-0.2,0.4,0.1,1.1-0.1,1.3
								c-0.2,0.3-0.7,0.5-0.8,0.9c0,0.4,0.7,0.9,1.4,0.7c0.6-0.4,1-1.6,0.7-2.7c0.4-0.3,0.7-0.7,1-1.2c0.1-0.2,0.5-0.7,0.5-1
								c0-0.5-0.4-0.8-0.5-1.3c-0.1-0.5,0-1.1,0.2-1.5c0.3-0.3,0.8-0.4,1.3-0.3c-0.5-0.5-0.7-1.7,0.1-2.7c0.4-0.5,0.4-0.6,0.5-0.9
								c-0.6,0.2-1.6,0.2-1.6-0.4c0-0.8,1-0.7,1.2-1.4c-0.4,0.1-1,0.1-1.6-0.2c0.8-0.1,1.6-0.8,1.3-1.8c-0.8,0.8-2-0.2-1.7-1
								c0.4-1.3,1.6-1.9,1.4-3.2c0.5,1.4,1.1,2.7,3.5,3.6c0,0,0.1,0,0.1,0c0.1,0,0.1,0,0.2,0c0.2,0.2,0.8,0.7,1.3,0.7
								c0.7,0.1,1.4-0.4,2.1-0.5c1.4-0.3,2.3-0.6,2.3-1.7c0.1,0,0.2,0,0.3,0c0.2,0,0.4,0,0.5-0.1c0.4-0.4,1.1-1.4,1.4-2
								c0.6-1.1,1-2.1,0.7-3.3c0.9-0.3,0.9-2.4,0-4c-0.3-0.3-0.5-0.1-0.8-0.5c0-0.8-0.1-1.2-0.5-1.7c-0.5-0.7-1.5-1.7-2.2-1.7
								c-0.1,0-0.2,0-0.3,0c-0.1,0-0.2,0-0.3,0c-0.6,0-0.8-0.6-1.4-0.7c-0.2,0-0.6-0.1-0.9-0.1c-0.9,0-2.2,0-3,0.2
								c-0.6,0.2-1.3,0.6-1.6,0.9c-0.6,0.5-0.9,1.4-1,2.3c0,0.2,0.6,0.5,0.6,0.5s-0.2,0.4,0.6,1.2c1.3,1.3,2.5,0.6,2.7,0.4
								c-1.3,0.3-2-0.7-1.7-1.6c0.4,0,2.9,0,4.8-2c0.1-0.1,0.2-0.1,0.2,0c0.1,0.3,0.1,0.7,0.3,1c0.3,0.4,0.4,0.7,0.7,1
								c0.3,0.2,1.5,0.6,1.7,0.9c0.1,0.3-0.2,0.4-0.3,0.9c-0.2,0.6-0.1,0.8,0,1.3c0.3,1.2,0.7,0.7,1.3,1.5c-2.6,1-2.6,4-2.6,4.3
								c-0.2,0-0.2-0.3-0.4-0.2c-1,0-1.8,0.1-2.3,0.5c-0.5,0.3-0.7,1.3-1.5,1c0-0.3,0.1-0.5,0-1.1c-1-1.3-2.1-2.5-4.4-2.4
								c-0.3,0-0.3,0.2-0.3,0.2s-0.3-0.5-0.8-1.1c-0.9-1-2.4-2.4-3.9-2.8c-1-0.3-2.2-0.2-3.3-0.2c-1.6,0.1-3.2,0.1-3.9-0.8
								c0.3-0.9,2.2-0.7,2.3-1.5c0.1-0.8-0.6-3.1-0.8-4c-0.3-1.5,0.5-1.7,0.6-1.7c0.1,0.2,2.1,4.4,8.5,4.5c-4.3-0.1-7.7-3-7.8-4.8
								c4.3-2.1,8.8-1.9,11.2-1.5c-5.8-1.5-9.8,0.7-11.3,0.9c5-8.8,16.9-7.6,16.9-7.6s-1.2-0.3-3.2-0.3
								C375.1,24.1,370.1,24.9,365.7,29.1"/>
						</defs>
						<clipPath id="SVGID_20_">
							<use xlink:href="#SVGID_19_"  style="overflow:visible;"/>
						</clipPath>
						
							<linearGradient id="SVGID_21_" gradientUnits="userSpaceOnUse" x1="275.0763" y1="294.0106" x2="276.0762" y2="294.0106" gradientTransform="matrix(41.3488 -33.7443 -33.7443 -41.3488 -1104.4681 21496.0039)">
							<stop  offset="0" style="stop-color:#F1A339"/>
							<stop  offset="0.4419" style="stop-color:#F4BF2A"/>
							<stop  offset="0.7472" style="stop-color:#F6D51F"/>
							<stop  offset="1" style="stop-color:#F1B930"/>
						</linearGradient>
						<polygon class="st13" points="358.5,89.5 408.3,48.9 368.1,-0.3 318.3,40.3 						"/>
					</g>
				</g>
				<g>
					<g>
						<defs>
							<path id="SVGID_22_" d="M365.1,31.5L365.1,31.5c2.8-1,6.8-1.8,10.2-0.9c-0.4-0.5-0.7-4.8,5.1-6c-0.2,0-0.6-0.1-1.1-0.1
								C376.3,24.6,368.6,25.6,365.1,31.5"/>
						</defs>
						<clipPath id="SVGID_23_">
							<use xlink:href="#SVGID_22_"  style="overflow:visible;"/>
						</clipPath>
						
							<linearGradient id="SVGID_24_" gradientUnits="userSpaceOnUse" x1="275.081" y1="294.0192" x2="276.0815" y2="294.0192" gradientTransform="matrix(41.3343 -33.7324 -33.7324 -41.3343 -1108.387 21483.7832)">
							<stop  offset="0" style="stop-color:#F1A339"/>
							<stop  offset="0.4419" style="stop-color:#F4BF2A"/>
							<stop  offset="0.7472" style="stop-color:#F6D51F"/>
							<stop  offset="1" style="stop-color:#F1B930"/>
						</linearGradient>
						<polygon class="st14" points="371.2,39 383.8,28.7 374.3,17.1 361.7,27.3 						"/>
					</g>
				</g>
				<g>
					<g>
						<defs>
							<path id="SVGID_25_" d="M364.9,32.8c0.3,1.6,3.1,3.7,7.3,4.1c-0.5-0.4-0.8-1.4-0.7-2.4c0.3-1.7,2-2.8,3.5-3.2
								c-0.8-0.1-1.6-0.2-2.5-0.2C369.8,31.1,367,31.7,364.9,32.8"/>
						</defs>
						<clipPath id="SVGID_26_">
							<use xlink:href="#SVGID_25_"  style="overflow:visible;"/>
						</clipPath>
						
							<linearGradient id="SVGID_27_" gradientUnits="userSpaceOnUse" x1="275.0886" y1="294.0211" x2="276.0894" y2="294.0211" gradientTransform="matrix(41.3904 -33.7782 -33.7782 -41.3904 -1108.7048 21515.4062)">
							<stop  offset="0" style="stop-color:#F1A339"/>
							<stop  offset="0.4419" style="stop-color:#F4BF2A"/>
							<stop  offset="0.7472" style="stop-color:#F6D51F"/>
							<stop  offset="1" style="stop-color:#F1B930"/>
						</linearGradient>
						<polygon class="st15" points="369,41.9 377.9,34.6 371,26.1 362.1,33.4 						"/>
					</g>
				</g>
				<g>
					<g>
						<defs>
							<path id="SVGID_28_" d="M369.6,66.3c0.3,0,0.9-0.2,1-0.5c-0.2,0.1-0.5-0.1-0.6-0.2C369.9,65.9,369.8,66,369.6,66.3"/>
						</defs>
						<clipPath id="SVGID_29_">
							<use xlink:href="#SVGID_28_"  style="overflow:visible;"/>
						</clipPath>
						
							<linearGradient id="SVGID_30_" gradientUnits="userSpaceOnUse" x1="274.9545" y1="293.9716" x2="275.9592" y2="293.9716" gradientTransform="matrix(40.6766 -33.1958 -33.1958 -40.6766 -1064.0428 21158.0352)">
							<stop  offset="0" style="stop-color:#F1A339"/>
							<stop  offset="0.4419" style="stop-color:#F4BF2A"/>
							<stop  offset="0.7472" style="stop-color:#F6D51F"/>
							<stop  offset="1" style="stop-color:#F1B930"/>
						</linearGradient>
						<polygon class="st16" points="370,66.8 370.9,66 370.2,65.1 369.3,65.9 						"/>
					</g>
				</g>
				<g>
					<g>
						<defs>
							<path id="SVGID_31_" d="M364,35.8c0.1,0.7,0.3,1.3,0.4,1.7c0.1,0.3,0.1,0.9,0,1.1c-0.2,0.9-1.8,0.6-2.1,1.3
								c0.8,0.8,2,0.4,3.3,0.4c1.3-0.1,1.6-0.1,2.1,0c-0.6-1.1-0.1-1.8,0.4-2.1c0.7-0.4,3-0.7,3.2-0.7c-1-0.1-2.3-0.4-3.1-0.6
								c-2.4-0.7-3.6-2.1-4.4-3.6C363.1,33.7,363.8,34.9,364,35.8"/>
						</defs>
						<clipPath id="SVGID_32_">
							<use xlink:href="#SVGID_31_"  style="overflow:visible;"/>
						</clipPath>
						
							<linearGradient id="SVGID_33_" gradientUnits="userSpaceOnUse" x1="275.0835" y1="294.0232" x2="276.0836" y2="294.0232" gradientTransform="matrix(41.3309 -33.7296 -33.7296 -41.3309 -1106.1014 21484.5918)">
							<stop  offset="0" style="stop-color:#F1A339"/>
							<stop  offset="0.4419" style="stop-color:#F4BF2A"/>
							<stop  offset="0.7472" style="stop-color:#F6D51F"/>
							<stop  offset="1" style="stop-color:#F1B930"/>
						</linearGradient>
						<polygon class="st17" points="365.9,45 374.9,37.7 367.7,28.9 358.7,36.2 						"/>
					</g>
				</g>
				<g>
					<g>
						<defs>
							<path id="SVGID_34_" d="M366.7,66.7c0.8,0.3,1.4,0,1.8-0.4c-0.4,0.2-0.8,0-1-0.1C367.4,66.3,367,66.6,366.7,66.7"/>
						</defs>
						<clipPath id="SVGID_35_">
							<use xlink:href="#SVGID_34_"  style="overflow:visible;"/>
						</clipPath>
						
							<linearGradient id="SVGID_36_" gradientUnits="userSpaceOnUse" x1="274.9922" y1="293.9969" x2="275.9872" y2="293.9969" gradientTransform="matrix(40.8117 -33.3059 -33.3059 -40.8117 -1070.0916 21229.3574)">
							<stop  offset="0" style="stop-color:#F1A339"/>
							<stop  offset="0.4419" style="stop-color:#F4BF2A"/>
							<stop  offset="0.7472" style="stop-color:#F6D51F"/>
							<stop  offset="1" style="stop-color:#F1B930"/>
						</linearGradient>
						<polygon class="st18" points="367.4,67.8 368.9,66.6 367.8,65.3 366.3,66.5 						"/>
					</g>
				</g>
				<g>
					<g>
						<defs>
							<path id="SVGID_37_" d="M362,48.7c0.1,0.2,0.1,0.4,0.1,0.5c-0.8,1.4-2.9,2.3-4.5,2.5c0.4,0.1,0.6,0.5,1.1,0.6
								c-0.5,0.2-0.8,0.5-1.1,0.9c-0.3,0.7,0.4,1.4,0.4,2c0.1,1.1-0.5,2.2-1.4,2.2c0.3-0.1,0.3-0.2,0.4-0.5c-0.6,0-0.9-0.4-1.1-0.7
								c-0.6,0.2-1-0.1-1.3-0.3c-0.3-0.2-0.5-0.4-0.6-0.4c-0.6,0.1-0.7,0.7-0.4,1.1c0.1,0.1,1,0.1,1.2,0.3c-0.4,0.1-0.3,0.4-0.3,0.5
								c-0.2,0-0.4,0-0.7,0c-0.8,0-1.6-0.1-1.7,0.7c-0.1,0.5,0.4,1.1,1.1,1c0.3,0,0.4-0.4,0.8-0.4c0.5,0,0.8,0.3,1.4,0.4
								c-0.4,0.5-1.5,0.4-1.7,0.8c-0.4,1,0.2,1.2,1.1,1.2c0.3,0,1.3-0.7,1.4-1.3c1.1,0.4,1.5-0.7,2-1c-0.3,0.5,0,0.7-0.2,1.3
								c-0.1,0.5-0.8,0.6-0.9,1c-0.3,0.8,0.6,1.3,1.3,0.9c0.3-0.2,0.1-0.6,0.2-0.7c0.4-0.4,0.9-0.5,1.1-1.1c0.1-0.1,0-0.3,0-0.5
								c0-0.1,0.2-0.3,0.3-0.5c0-0.1,0-0.2,0-0.3c0.2-0.3,0.8-0.5,0.9-0.8c0.2-0.4-0.1-0.8-0.1-1.3c0-1.5,1.3-1.7,1.9-2.9
								c-0.1-0.2-0.2-0.3-0.5-0.4c0.4-0.4,2.3-2,2.1-4.1c-0.3-0.4-1-0.7-1.8-0.7C362.5,48.6,362.3,48.6,362,48.7"/>
						</defs>
						<clipPath id="SVGID_38_">
							<use xlink:href="#SVGID_37_"  style="overflow:visible;"/>
						</clipPath>
						
							<linearGradient id="SVGID_39_" gradientUnits="userSpaceOnUse" x1="275.0662" y1="294.0001" x2="276.0663" y2="294.0001" gradientTransform="matrix(41.228 -33.6457 -33.6457 -41.228 -1096.9486 21436.8477)">
							<stop  offset="0" style="stop-color:#F1A339"/>
							<stop  offset="0.4419" style="stop-color:#F4BF2A"/>
							<stop  offset="0.7472" style="stop-color:#F6D51F"/>
							<stop  offset="1" style="stop-color:#F1B930"/>
						</linearGradient>
						<polygon class="st19" points="357.2,68.5 371.5,56.8 359.7,42.4 345.4,54.1 						"/>
					</g>
				</g>
				<g>
					<g>
						<defs>
							<path id="SVGID_40_" d="M364.3,66.2c0.1-0.3,0.4-0.6,0.6-0.7c0,0-0.3-0.2-0.5-0.4C364.2,65.4,364.1,66,364.3,66.2"/>
						</defs>
						<clipPath id="SVGID_41_">
							<use xlink:href="#SVGID_40_"  style="overflow:visible;"/>
						</clipPath>
						
							<linearGradient id="SVGID_42_" gradientUnits="userSpaceOnUse" x1="275.063" y1="294.0207" x2="276.0725" y2="294.0207" gradientTransform="matrix(41.3015 -33.7057 -33.7057 -41.3015 -1091.1709 21484.7207)">
							<stop  offset="0" style="stop-color:#F1A339"/>
							<stop  offset="0.4419" style="stop-color:#F4BF2A"/>
							<stop  offset="0.7472" style="stop-color:#F6D51F"/>
							<stop  offset="1" style="stop-color:#F1B930"/>
						</linearGradient>
						<polygon class="st20" points="364.5,66.6 365.5,65.8 364.6,64.7 363.6,65.5 						"/>
					</g>
				</g>
				<g>
					<g>
						<defs>
							<path id="SVGID_43_" d="M363.2,64.6c0-0.5,0.4-0.8,0.6-1c-0.3-0.1-0.5-0.5-0.5-0.8C363.2,63.1,362.9,64.1,363.2,64.6"/>
						</defs>
						<clipPath id="SVGID_44_">
							<use xlink:href="#SVGID_43_"  style="overflow:visible;"/>
						</clipPath>
						
							<linearGradient id="SVGID_45_" gradientUnits="userSpaceOnUse" x1="275.1397" y1="294.0445" x2="276.1414" y2="294.0445" gradientTransform="matrix(41.7698 -34.0878 -34.0878 -41.7698 -1111.5255 21729.4238)">
							<stop  offset="0" style="stop-color:#F1A339"/>
							<stop  offset="0.4419" style="stop-color:#F4BF2A"/>
							<stop  offset="0.7472" style="stop-color:#F6D51F"/>
							<stop  offset="1" style="stop-color:#F1B930"/>
						</linearGradient>
						<polygon class="st21" points="363.3,65.1 364.8,63.9 363.5,62.3 362,63.5 						"/>
					</g>
				</g>
				<g>
					<g>
						<defs>
							<path id="SVGID_46_" d="M353.5,23c-0.4,0.1-0.8,0-1.2-0.1c-0.4-0.1-0.9-0.3-1.4-0.1c0.6,0.2,0.3,0.8,1.2,0.9
								c-0.4,0.2-0.7,0-1.1-0.1c-0.4-0.1-0.8-0.3-1.1-0.1c0.4,0.1,0.9,0.7,0.7,1.3c-0.1,0.4-0.7,0.6-0.5,1c0,0.2,0.4,0.2,0.5,0.4
								c-0.6,0.4-0.4,1.2,0.1,1.4c0.2,0.1,0.2,0,0.3-0.1c0.1-0.1,0.2-0.1,0.3-0.1c-1,0.4-0.4,2.2,0.8,1.9c-0.3,0.4-0.3,0.8-0.7,1
								c-0.5,0.3-1.3,0.2-1.8,0.6c-0.6,0.8,0.3,1,0.3,1.7c-0.1,0.3-0.6,0.6-1,0.5c-0.2,0.4-0.5,1-0.9,0.9c-0.4,0-0.5-0.3-0.6-0.6
								c-0.5,1.1,0.8,1.7,1.6,1.8c1.1,0.1,1.9-0.6,2.2-1.3c-0.2,0.5,0.3,1.1-0.1,1.5c0.7,0.1,1.3,0.1,1.5-0.4
								c0.1,0.7-0.6,1.2-1.1,1.3c0.6,0.2,1.3,0.5,2,0.5c0.8,0,1.6-0.2,2.1-1c0.1-0.2,0.3-0.7,0.6-0.7c-0.7,2.2,1.2,3.5,2.9,2.6
								c-0.8-0.1-0.9-0.8-0.7-1.6c0.3,0.3,1,1,1.5,0.2c-0.7,0.1-0.8-0.6-0.7-1.1c0.2-1,1.5-1.5,0.1-2.2c0.4,0,0.7,0.1,0.9,0.2
								c0.3,0.2,0.4,0.3,0.8,0c-0.6-0.1-0.8-1-0.6-1.4c0,0.2,0.1,0.4,0.2,0.6c0.7,0.3,1.1,0.1,1.2-0.4c-0.2,0.1-0.4,0-0.6-0.2
								c-0.5-0.5,0.2-1.6,0.1-2.4c-0.2-1.5-1.3-2.7-2.7-3.4c0.2-0.3,0.8-0.4,1.1-0.4c-0.5-0.7-1.7-1-2.9-0.9
								c-0.1-0.7,0.3-1.1,0.7-1.4c-0.4-0.5-1.2-0.8-1.8-0.9c-0.1,0-0.3,0-0.4,0C354.4,22.5,354,22.9,353.5,23"/>
						</defs>
						<clipPath id="SVGID_47_">
							<use xlink:href="#SVGID_46_"  style="overflow:visible;"/>
						</clipPath>
						
							<linearGradient id="SVGID_48_" gradientUnits="userSpaceOnUse" x1="275.0623" y1="294.0183" x2="276.0621" y2="294.0183" gradientTransform="matrix(41.3143 -33.7161 -33.7161 -41.3143 -1112.9637 21465.2188)">
							<stop  offset="0" style="stop-color:#F1A339"/>
							<stop  offset="0.4419" style="stop-color:#F4BF2A"/>
							<stop  offset="0.7472" style="stop-color:#F6D51F"/>
							<stop  offset="1" style="stop-color:#F1B930"/>
						</linearGradient>
						<polygon class="st22" points="352.8,46.1 369.6,32.3 355.7,15.3 338.8,29 						"/>
					</g>
				</g>
				<g>
					<g>
						<defs>
							<path id="SVGID_49_" d="M356,61.7c0.2,0.2,0.7,0.3,1,0.2c-0.1-0.1-0.2-0.3-0.3-0.4C356.5,61.7,356.2,61.7,356,61.7"/>
						</defs>
						<clipPath id="SVGID_50_">
							<use xlink:href="#SVGID_49_"  style="overflow:visible;"/>
						</clipPath>
						
							<linearGradient id="SVGID_51_" gradientUnits="userSpaceOnUse" x1="275.1617" y1="294.0386" x2="276.1641" y2="294.0386" gradientTransform="matrix(41.9124 -34.2043 -34.2043 -41.9124 -1121.2621 21799.3594)">
							<stop  offset="0" style="stop-color:#F1A339"/>
							<stop  offset="0.4419" style="stop-color:#F4BF2A"/>
							<stop  offset="0.7472" style="stop-color:#F6D51F"/>
							<stop  offset="1" style="stop-color:#F1B930"/>
						</linearGradient>
						<polygon class="st23" points="356.4,62.5 357.2,61.8 356.6,61 355.7,61.7 						"/>
					</g>
				</g>
				<g>
					<g>
						<defs>
							<path id="SVGID_52_" d="M353,61.5L353,61.5c0.2-0.2,0.5-0.3,1-0.3c-0.4-0.2-0.6-0.4-0.6-0.7C353.2,60.8,353.1,61.2,353,61.5"
								/>
						</defs>
						<clipPath id="SVGID_53_">
							<use xlink:href="#SVGID_52_"  style="overflow:visible;"/>
						</clipPath>
						
							<linearGradient id="SVGID_54_" gradientUnits="userSpaceOnUse" x1="275.0306" y1="293.9949" x2="276.0268" y2="293.9949" gradientTransform="matrix(41.071 -33.5176 -33.5176 -41.071 -1089.3011 21354.873)">
							<stop  offset="0" style="stop-color:#F1A339"/>
							<stop  offset="0.4419" style="stop-color:#F4BF2A"/>
							<stop  offset="0.7472" style="stop-color:#F6D51F"/>
							<stop  offset="1" style="stop-color:#F1B930"/>
						</linearGradient>
						<polygon class="st24" points="353.4,62 354.5,61.1 353.6,60 352.5,60.9 						"/>
					</g>
				</g>
				<g>
					<g>
						<defs>
							<path id="SVGID_55_" d="M352.1,56.4c0.4-0.2,0.6-0.1,0.8-0.1c0.1,0,0.2,0,0.3,0c-0.2-0.4,0-0.6,0.2-0.8
								C352.8,55.7,352.3,55.9,352.1,56.4"/>
						</defs>
						<clipPath id="SVGID_56_">
							<use xlink:href="#SVGID_55_"  style="overflow:visible;"/>
						</clipPath>
						
							<linearGradient id="SVGID_57_" gradientUnits="userSpaceOnUse" x1="274.9458" y1="293.99" x2="275.9357" y2="293.99" gradientTransform="matrix(40.6273 -33.1555 -33.1555 -40.6273 -1073.1526 21118.4375)">
							<stop  offset="0" style="stop-color:#F1A339"/>
							<stop  offset="0.4419" style="stop-color:#F4BF2A"/>
							<stop  offset="0.7472" style="stop-color:#F6D51F"/>
							<stop  offset="1" style="stop-color:#F1B930"/>
						</linearGradient>
						<polygon class="st25" points="352.6,57 353.8,56.1 352.9,55 351.7,55.9 						"/>
					</g>
				</g>
				<g>
					<g>
						<defs>
							<path id="SVGID_58_" d="M351.4,59.2c0.2-0.2,0.5-0.3,0.8-0.3c-0.2-0.2-0.3-0.4-0.3-0.8C351.7,58.4,351.4,58.8,351.4,59.2"/>
						</defs>
						<clipPath id="SVGID_59_">
							<use xlink:href="#SVGID_58_"  style="overflow:visible;"/>
						</clipPath>
						
							<linearGradient id="SVGID_60_" gradientUnits="userSpaceOnUse" x1="275.1141" y1="294.0247" x2="276.1236" y2="294.0247" gradientTransform="matrix(41.5614 -33.9178 -33.9178 -41.5614 -1110.8663 21610.9863)">
							<stop  offset="0" style="stop-color:#F1A339"/>
							<stop  offset="0.4419" style="stop-color:#F4BF2A"/>
							<stop  offset="0.7472" style="stop-color:#F6D51F"/>
							<stop  offset="1" style="stop-color:#F1B930"/>
						</linearGradient>
						<polygon class="st26" points="351.7,59.6 352.7,58.8 351.8,57.8 350.8,58.6 						"/>
					</g>
				</g>
				<g>
					<g>
						<defs>
							<path id="SVGID_61_" d="M347.8,26c0.3-0.1,0-0.2,0.2-0.4c0.7-0.2,1.1,0,1.3,0.5c-0.2,0-0.2-0.3-0.4-0.2
								c0,0.3-0.2,0.5-0.5,0.5c0.2,0.2,0.4,0.3,0.5,0.5C348.6,26.7,348,26.5,347.8,26 M348,25c-0.1,0.1-0.2,0.2-0.4,0.4
								c-1,0.1-1.9,0.1-2.8,0.4c0,0.2,0.1,0.5,0,0.8c-0.1,0.1-0.3,0.2-0.3,0.3c0,1,1,1.2,1.8,1.5c0.8,0.4,1.3,0.9,1.7,1.4
								c-0.4,0-0.6,0.5-0.9,0.6c-0.4,0.2-0.9,0.1-1.4,0.1c0.3,0.8,1.3,1.5,2.3,1.5c-0.5-2.3,3-0.8,3.4-2.3c-0.7-0.2-1.4-0.9-1-1.7
								c-0.3-0.2-0.7-0.5-0.8-0.9c0.7-0.6,0-0.9,0-1.4c0.1-0.4,0.7-0.5,0.5-1C349.6,24.9,348.7,25.1,348,25"/>
						</defs>
						<clipPath id="SVGID_62_">
							<use xlink:href="#SVGID_61_"  style="overflow:visible;"/>
						</clipPath>
						
							<linearGradient id="SVGID_63_" gradientUnits="userSpaceOnUse" x1="275.0797" y1="294.0264" x2="276.0793" y2="294.0264" gradientTransform="matrix(41.3248 -33.7246 -33.7246 -41.3248 -1117.4164 21467.123)">
							<stop  offset="0" style="stop-color:#F1A339"/>
							<stop  offset="0.4419" style="stop-color:#F4BF2A"/>
							<stop  offset="0.7472" style="stop-color:#F6D51F"/>
							<stop  offset="1" style="stop-color:#F1B930"/>
						</linearGradient>
						<polygon class="st27" points="347.3,35.4 355.1,29.1 348.7,21.3 341,27.6 						"/>
					</g>
				</g>
				<g>
					<g>
						<defs>
							<path id="SVGID_64_" d="M348.4,25.8c-0.1,0-0.1,0.1-0.2,0.1c0,0.1,0,0.1,0.1,0.1C348.3,25.9,348.4,25.9,348.4,25.8
								L348.4,25.8z"/>
						</defs>
						<clipPath id="SVGID_65_">
							<use xlink:href="#SVGID_64_"  style="overflow:visible;"/>
						</clipPath>
						
							<linearGradient id="SVGID_66_" gradientUnits="userSpaceOnUse" x1="274.7686" y1="293.932" x2="275.7845" y2="293.932" gradientTransform="matrix(39.5667 -32.2899 -32.2899 -39.5667 -1046.9794 20540.0547)">
							<stop  offset="0" style="stop-color:#F1A339"/>
							<stop  offset="0.4419" style="stop-color:#F4BF2A"/>
							<stop  offset="0.7472" style="stop-color:#F6D51F"/>
							<stop  offset="1" style="stop-color:#F1B930"/>
						</linearGradient>
						<polygon class="st28" points="348.3,26.2 348.6,25.9 348.4,25.7 348.1,25.9 						"/>
					</g>
				</g>
				<g>
					<g>
						<defs>
							<path id="SVGID_67_" d="M346.7,29.9c0,0.1,0.1,0.2,0.1,0.2c0.2,0,0.6-0.4,0.4-0.6C347.2,29.6,346.9,29.8,346.7,29.9"/>
						</defs>
						<clipPath id="SVGID_68_">
							<use xlink:href="#SVGID_67_"  style="overflow:visible;"/>
						</clipPath>
						
							<linearGradient id="SVGID_69_" gradientUnits="userSpaceOnUse" x1="274.9082" y1="293.9713" x2="275.9209" y2="293.9713" gradientTransform="matrix(40.4183 -32.9849 -32.9849 -40.4183 -1080.0269 20989.4961)">
							<stop  offset="0" style="stop-color:#F1A339"/>
							<stop  offset="0.4419" style="stop-color:#F4BF2A"/>
							<stop  offset="0.7472" style="stop-color:#F6D51F"/>
							<stop  offset="1" style="stop-color:#F1B930"/>
						</linearGradient>
						<polygon class="st29" points="346.9,30.4 347.7,29.9 347.1,29.1 346.4,29.7 						"/>
					</g>
				</g>
				<g>
					<g>
						<defs>
							<path id="SVGID_70_" d="M340.1,31.9c-0.1,0.7,0.4,0.8,0.4,1.2c-0.1,0.3-0.6,0.3-1,0.2c-0.4,0-0.7-0.1-1,0.1
								c-0.5,0.4-0.4,0.9,0,1.1c0.1,0.1,0.3,0,0.5,0c0.4-0.1,1-0.1,1.1,0.5c0.1,0.5-0.7,0.1-1,0.8c0.2,1.7,1.3,0.2,1.9,0.1
								c0.1,0,0.2,0,0.3,0.1c0.1,0,0.2,0.1,0.3,0.1c1.1-0.4,1.4,1.6,0.8,2.8c0.1,0.2,0.7,0,1.1,0.5c0.7,0.8,0.7,2.4,1.8,2.8
								c0.4-1,1,0.3,1.4,0.5c-0.1-0.9,0.4-1.8,0.4-2.6c0-0.6-0.2-1.2,0.2-1.7c-0.8-0.7-2.2-1.4-2.6-2.4c-0.2-0.6,0-1.1-1-1.7
								c0.6-0.7,0.5-2.1-0.8-2c-0.7,0.3-0.2,1-0.2,1.5c-0.2,0-0.2-0.5-0.8-0.5c-0.3-0.4-0.3-0.9-0.5-1.4c-0.1-0.4-0.5-0.6-0.8-0.6
								C340.4,31.3,340.2,31.5,340.1,31.9"/>
						</defs>
						<clipPath id="SVGID_71_">
							<use xlink:href="#SVGID_70_"  style="overflow:visible;"/>
						</clipPath>
						
							<linearGradient id="SVGID_72_" gradientUnits="userSpaceOnUse" x1="275.0775" y1="294.0038" x2="276.0769" y2="294.0038" gradientTransform="matrix(41.3265 -33.7261 -33.7261 -41.3265 -1116.0808 21469.6875)">
							<stop  offset="0" style="stop-color:#F1A339"/>
							<stop  offset="0.4419" style="stop-color:#F4BF2A"/>
							<stop  offset="0.7472" style="stop-color:#F6D51F"/>
							<stop  offset="1" style="stop-color:#F1B930"/>
						</linearGradient>
						<polygon class="st30" points="341.8,47.2 352.9,38.2 343.6,26.8 332.5,35.9 						"/>
					</g>
				</g>
				<g>
					<g>
						<defs>
							<path id="SVGID_73_" d="M345.9,30.1c0.2,0,0.4,0,0.5,0c-0.1-0.3-0.4-0.7-0.6-0.8C345.7,29.6,345.7,30,345.9,30.1"/>
						</defs>
						<clipPath id="SVGID_74_">
							<use xlink:href="#SVGID_73_"  style="overflow:visible;"/>
						</clipPath>
						
							<linearGradient id="SVGID_75_" gradientUnits="userSpaceOnUse" x1="274.7741" y1="293.9359" x2="275.7946" y2="293.9359" gradientTransform="matrix(39.6094 -32.3247 -32.3247 -39.6094 -1047.7904 20563.8203)">
							<stop  offset="0" style="stop-color:#F1A339"/>
							<stop  offset="0.4419" style="stop-color:#F4BF2A"/>
							<stop  offset="0.7472" style="stop-color:#F6D51F"/>
							<stop  offset="1" style="stop-color:#F1B930"/>
						</linearGradient>
						<polygon class="st31" points="346,30.5 346.8,29.8 346.1,29 345.3,29.7 						"/>
					</g>
				</g>
				<g>
					<g>
						<defs>
							<path id="SVGID_76_" d="M344.2,25.9c0.3,0.1,0,0.5,0.3,0.5c0.3-0.1,0.1-0.4,0-0.6c0,0-0.1,0-0.1,0
								C344.3,25.8,344.2,25.8,344.2,25.9"/>
						</defs>
						<clipPath id="SVGID_77_">
							<use xlink:href="#SVGID_76_"  style="overflow:visible;"/>
						</clipPath>
						
							<linearGradient id="SVGID_78_" gradientUnits="userSpaceOnUse" x1="274.894" y1="293.9548" x2="275.8738" y2="293.9548" gradientTransform="matrix(40.2504 -32.8479 -32.8479 -40.2504 -1076.4694 20897.5156)">
							<stop  offset="0" style="stop-color:#F1A339"/>
							<stop  offset="0.4419" style="stop-color:#F4BF2A"/>
							<stop  offset="0.7472" style="stop-color:#F6D51F"/>
							<stop  offset="1" style="stop-color:#F1B930"/>
						</linearGradient>
						<polygon class="st32" points="344.4,26.7 345,26.2 344.5,25.5 343.9,26.1 						"/>
					</g>
				</g>
				<g>
					<g>
						<defs>
							<path id="SVGID_79_" d="M342.9,32c0.2,0,0.4-0.1,0.6,0l0,0c-0.2-0.2-0.3-0.6-0.7-0.7C342.9,31.6,342.9,31.8,342.9,32"/>
						</defs>
						<clipPath id="SVGID_80_">
							<use xlink:href="#SVGID_79_"  style="overflow:visible;"/>
						</clipPath>
						
							<linearGradient id="SVGID_81_" gradientUnits="userSpaceOnUse" x1="275.3597" y1="294.0879" x2="276.3591" y2="294.0879" gradientTransform="matrix(43.0964 -35.1705 -35.1705 -43.0964 -1190.2001 22398.1484)">
							<stop  offset="0" style="stop-color:#F1A339"/>
							<stop  offset="0.4419" style="stop-color:#F4BF2A"/>
							<stop  offset="0.7472" style="stop-color:#F6D51F"/>
							<stop  offset="1" style="stop-color:#F1B930"/>
						</linearGradient>
						<polygon class="st33" points="343.1,32.4 343.8,31.8 343.2,31 342.5,31.6 						"/>
					</g>
				</g>
				<g>
					<g>
						<defs>
							<path id="SVGID_82_" d="M342,52.8c0.3,0.3,0.7,0.2,1,0.2c-0.1-0.1-0.2-0.2-0.2-0.5C342.6,52.6,342.4,52.9,342,52.8"/>
						</defs>
						<clipPath id="SVGID_83_">
							<use xlink:href="#SVGID_82_"  style="overflow:visible;"/>
						</clipPath>
						
							<linearGradient id="SVGID_84_" gradientUnits="userSpaceOnUse" x1="275.1218" y1="294.0322" x2="276.1341" y2="294.0322" gradientTransform="matrix(41.5877 -33.9392 -33.9392 -41.5877 -1118.3999 21617.0859)">
							<stop  offset="0" style="stop-color:#F1A339"/>
							<stop  offset="0.4419" style="stop-color:#F4BF2A"/>
							<stop  offset="0.7472" style="stop-color:#F6D51F"/>
							<stop  offset="1" style="stop-color:#F1B930"/>
						</linearGradient>
						<polygon class="st34" points="342.4,53.6 343.3,52.9 342.6,52 341.7,52.8 						"/>
					</g>
				</g>
				<g>
					<g>
						<defs>
							<path id="SVGID_85_" d="M339.7,30.5c0.3,0.3,0.2,0.7,0.2,0.9c0.1-0.4,0.5-0.5,0.8-0.4C340.6,30.9,340.4,30.5,339.7,30.5
								L339.7,30.5z"/>
						</defs>
						<clipPath id="SVGID_86_">
							<use xlink:href="#SVGID_85_"  style="overflow:visible;"/>
						</clipPath>
						
							<linearGradient id="SVGID_87_" gradientUnits="userSpaceOnUse" x1="275.0669" y1="294.0168" x2="276.0711" y2="294.0168" gradientTransform="matrix(41.3348 -33.7329 -33.7329 -41.3348 -1119.3488 21469.2559)">
							<stop  offset="0" style="stop-color:#F1A339"/>
							<stop  offset="0.4419" style="stop-color:#F4BF2A"/>
							<stop  offset="0.7472" style="stop-color:#F6D51F"/>
							<stop  offset="1" style="stop-color:#F1B930"/>
						</linearGradient>
						<polygon class="st35" points="340.1,31.9 341.2,31 340.4,30 339.3,30.9 						"/>
					</g>
				</g>
				<g>
					<g>
						<defs>
							<path id="SVGID_88_" d="M339.6,51.9c0.4,0.2,0.8,0.4,1.2,0.3c-0.2-0.2-0.4-0.3-0.4-0.6C340.2,51.8,339.9,51.9,339.6,51.9"/>
						</defs>
						<clipPath id="SVGID_89_">
							<use xlink:href="#SVGID_88_"  style="overflow:visible;"/>
						</clipPath>
						
							<linearGradient id="SVGID_90_" gradientUnits="userSpaceOnUse" x1="275.0341" y1="293.9996" x2="276.0334" y2="293.9996" gradientTransform="matrix(41.0376 -33.4903 -33.4903 -41.0376 -1097.8691 21325.875)">
							<stop  offset="0" style="stop-color:#F1A339"/>
							<stop  offset="0.4419" style="stop-color:#F4BF2A"/>
							<stop  offset="0.7472" style="stop-color:#F6D51F"/>
							<stop  offset="1" style="stop-color:#F1B930"/>
						</linearGradient>
						<polygon class="st36" points="340.1,52.9 341.2,52 340.3,51 339.3,51.9 						"/>
					</g>
				</g>
				<g>
					<g>
						<defs>
							<path id="SVGID_91_" d="M339.2,47.6L339.2,47.6c0.3-0.2,0.7-0.2,1.1-0.1c0-0.2,0-0.3,0.1-0.6l0,0
								C339.9,47,339.3,47.2,339.2,47.6"/>
						</defs>
						<clipPath id="SVGID_92_">
							<use xlink:href="#SVGID_91_"  style="overflow:visible;"/>
						</clipPath>
						
							<linearGradient id="SVGID_93_" gradientUnits="userSpaceOnUse" x1="275.1212" y1="294.0268" x2="276.1117" y2="294.0268" gradientTransform="matrix(41.5752 -33.929 -33.929 -41.5752 -1121.9763 21605.6797)">
							<stop  offset="0" style="stop-color:#F1A339"/>
							<stop  offset="0.4419" style="stop-color:#F4BF2A"/>
							<stop  offset="0.7472" style="stop-color:#F6D51F"/>
							<stop  offset="1" style="stop-color:#F1B930"/>
						</linearGradient>
						<polygon class="st37" points="339.7,48.1 340.7,47.3 339.9,46.3 338.9,47.2 						"/>
					</g>
				</g>
				<g>
					<g>
						<defs>
							<path id="SVGID_94_" d="M338.2,36.2c0.1,0.2,0.4,0.6,1,0.6c-0.2-0.1-0.3-0.4-0.3-0.6C338.8,36.3,338.5,36.3,338.2,36.2"/>
						</defs>
						<clipPath id="SVGID_95_">
							<use xlink:href="#SVGID_94_"  style="overflow:visible;"/>
						</clipPath>
						
							<linearGradient id="SVGID_96_" gradientUnits="userSpaceOnUse" x1="275.1201" y1="294.0215" x2="276.1156" y2="294.0215" gradientTransform="matrix(41.5783 -33.9315 -33.9315 -41.5782 -1127.9357 21600.0352)">
							<stop  offset="0" style="stop-color:#F1A339"/>
							<stop  offset="0.4419" style="stop-color:#F4BF2A"/>
							<stop  offset="0.7472" style="stop-color:#F6D51F"/>
							<stop  offset="1" style="stop-color:#F1B930"/>
						</linearGradient>
						<polygon class="st38" points="338.6,37.3 339.5,36.5 338.8,35.7 337.9,36.4 						"/>
					</g>
				</g>
				<g>
					<g>
						<defs>
							<path id="SVGID_97_" d="M338.3,50L338.3,50c0.3-0.3,0.6-0.3,0.9-0.2c-0.1-0.2-0.3-0.4-0.2-0.6
								C338.9,49.4,338.5,49.5,338.3,50"/>
						</defs>
						<clipPath id="SVGID_98_">
							<use xlink:href="#SVGID_97_"  style="overflow:visible;"/>
						</clipPath>
						
							<linearGradient id="SVGID_99_" gradientUnits="userSpaceOnUse" x1="275.0096" y1="293.997" x2="276.0107" y2="293.997" gradientTransform="matrix(41.0119 -33.4694 -33.4694 -41.0119 -1097.7803 21309.6016)">
							<stop  offset="0" style="stop-color:#F1A339"/>
							<stop  offset="0.4419" style="stop-color:#F4BF2A"/>
							<stop  offset="0.7472" style="stop-color:#F6D51F"/>
							<stop  offset="1" style="stop-color:#F1B930"/>
						</linearGradient>
						<polygon class="st39" points="338.7,50.5 339.7,49.7 338.9,48.7 337.9,49.5 						"/>
					</g>
				</g>
				<g>
					<g>
						<defs>
							<path id="SVGID_100_" d="M337.9,33.9c0-0.2,0.1-0.4,0.3-0.6c-0.4,0-0.7-0.2-0.9-0.4C337.4,33.3,337.5,33.7,337.9,33.9"/>
						</defs>
						<clipPath id="SVGID_101_">
							<use xlink:href="#SVGID_100_"  style="overflow:visible;"/>
						</clipPath>
						
							<linearGradient id="SVGID_102_" gradientUnits="userSpaceOnUse" x1="275.0676" y1="294.006" x2="276.0611" y2="294.006" gradientTransform="matrix(41.3046 -33.7082 -33.7082 -41.3046 -1118.4427 21453.459)">
							<stop  offset="0" style="stop-color:#F1A339"/>
							<stop  offset="0.4419" style="stop-color:#F4BF2A"/>
							<stop  offset="0.7472" style="stop-color:#F6D51F"/>
							<stop  offset="1" style="stop-color:#F1B930"/>
						</linearGradient>
						<polygon class="st40" points="337.7,34.4 338.8,33.5 337.9,32.5 336.9,33.3 						"/>
					</g>
				</g>
			</g>
		</g>
	</g>
	<g>
		
			<image style="overflow:visible;opacity:0.34;enable-background:new    ;" width="412" height="78" xlink:href="BD47D25A5B223443.png"  transform="matrix(1 0 0 1 392 16)">
		</image>
		<g>
			<g>
				<path class="st41" d="M441.9,34.7c-1.1-0.5-2.2-1-3.2-1.3c-1-0.3-2.3-0.5-3.9-0.5h-12.6c-2.3,0-3.5,1-3.5,3v24.9
					c0,2,1.1,3,3.5,3h9.9c3.4,0,5.7-0.1,6.8-0.3c1.1-0.2,2.4-0.7,3.8-1.4l-1.5,9.4h-28.4c-3.9,0-6.8-1-8.7-3.1
					c-1.9-2.1-2.9-5.6-2.9-10.4v-19c0-4.8,1-8.3,2.9-10.4c1.9-2.1,4.9-3.2,8.7-3.2h27.6L441.9,34.7z"/>
				<path class="st41" d="M446.7,38.9c0-4.8,1-8.3,2.9-10.4c1.9-2.1,4.9-3.2,8.7-3.2h26.4c3.9,0,6.8,1,8.7,3.1
					c1.9,2.1,2.9,5.6,2.9,10.4v19c0,4.8-1,8.3-2.9,10.4c-1.9,2.1-4.9,3.2-8.7,3.2h-26.4c-3.9,0-6.8-1-8.7-3.1
					c-1.9-2.1-2.9-5.6-2.9-10.4V38.9z M464.2,60.8c0,2,1.2,3,3.5,3h7.6c2.3,0,3.5-1,3.5-3V35.9c0-2-1.2-3-3.5-3h-7.6
					c-2.3,0-3.5,1-3.5,3V60.8z"/>
				<path class="st41" d="M511.3,33.2l-0.1,29.9c0,2.6,0.1,4.3,0.3,5.3c0.2,0.9,0.7,1.9,1.4,3h-11.1c0.8-1.1,1.2-2.1,1.4-3
					c0.2-0.9,0.3-2.7,0.3-5.3V33.6c0-2.6-0.1-4.3-0.3-5.3c-0.2-0.9-0.7-1.9-1.4-3h24.7l18.7,37.6l0.2-29.3c0-2.6-0.1-4.3-0.3-5.3
					c-0.2-0.9-0.7-1.9-1.4-3h11.1c-0.8,1.1-1.2,2.1-1.4,3c-0.2,0.9-0.3,2.7-0.3,5.3v37.8h-22.8L511.3,33.2z"/>
				<path class="st41" d="M626.5,63.8c2.1,0,3.7-0.1,4.7-0.4c1-0.2,2.6-0.8,4.9-1.7l-1.7,9.6h-46.3V50.9c0-3.7,0.7-6.3,2.1-7.7
					c1.4-1.4,3.7-2.1,6.9-2.1l18.7-1c1.1,0,1.8-0.2,2.2-0.6c0.4-0.4,0.6-1,0.6-1.9v-2.5c0-0.7-0.3-1.3-0.8-1.6
					c-0.5-0.4-1.4-0.5-2.6-0.5H595c-2.7,0-5.1,0.6-7.2,1.7l1.5-9.3h34c4.8,0,8.1,0.9,9.8,2.6c1.7,1.7,2.5,4.4,2.5,8V45
					c0,3.5-0.8,5.8-2.3,7.2c-1.5,1.3-4.2,2-8,2l-17.4,0.9c-1,0-1.5,0.3-1.8,1c-0.2,0.7-0.3,1.4-0.3,2v5.7L626.5,63.8L626.5,63.8z"/>
				<path class="st41" d="M680,25.3c3.9,0,6.8,1,8.7,3.1s2.9,5.6,2.9,10.4v19c0,4.8-1,8.3-2.9,10.4c-1.9,2.1-4.9,3.2-8.7,3.2h-26.4
					c-3.9,0-6.8-1-8.7-3.1c-1.9-2.1-2.9-5.6-2.9-10.4v-19c0-4.8,1-8.3,2.9-10.4c1.9-2.1,4.9-3.2,8.7-3.2H680z M663,33
					c-2.3,0-3.5,1-3.5,3v24.9c0,2,1.2,3,3.5,3h7.6c2.3,0,3.5-1,3.5-3V35.9c0-2-1.2-3-3.5-3H663z"/>
				<path class="st41" d="M721.4,65.1c0,1.6,0.1,2.9,0.4,3.8c0.3,0.9,0.7,1.7,1.3,2.6h-20.8c0.5-0.7,0.9-1.6,1.2-2.5
					c0.3-0.9,0.4-2.2,0.4-3.9V39.3h-6.6v-8.1l19.4-5.8h4.7V65.1z"/>
				<path class="st41" d="M771.2,25.3c3.4,0,6,0.8,7.7,2.5c1.7,1.7,2.6,4,2.6,7v4.3c0,3.2-0.9,5.3-2.6,6.2c-1.7,0.9-4.5,1.6-8.4,2
					c3.7,0.1,6.5,0.8,8.3,2.1c1.8,1.3,2.7,3.4,2.7,6.3v6.2c0,6.3-3.4,9.5-10.2,9.5h-28.5c-3.4,0-5.9-0.9-7.6-2.6
					c-1.7-1.7-2.6-4.1-2.6-7.2v-6.4c0-3,0.9-5.2,2.7-6.5c1.8-1.3,4.6-2,8.2-2c-4.8-0.6-7.8-1.4-9-2.6c-1.3-1.2-1.9-3-1.9-5.4v-4.2
					c0-6.1,3.4-9.2,10.2-9.2H771.2z M761.2,43.6c0.9,0,1.6-0.2,2.1-0.6c0.5-0.4,0.7-1.2,0.7-2.3V36c0-1.2-0.2-1.9-0.6-2.4
					c-0.4-0.4-1.1-0.6-2.1-0.6h-8.3c-1,0-1.7,0.2-2.1,0.6s-0.6,1.2-0.6,2.4v4.6c0,1.2,0.2,1.9,0.6,2.4c0.4,0.4,1.1,0.6,2.1,0.6
					L761.2,43.6L761.2,43.6z M752.9,51.2c-1,0-1.7,0.2-2.1,0.6s-0.6,1.2-0.6,2.4v6.5c0,1.2,0.2,1.9,0.6,2.4c0.4,0.4,1.1,0.6,2.1,0.6
					h8.3c0.9,0,1.6-0.2,2.1-0.6c0.5-0.4,0.7-1.2,0.7-2.3v-6.6c0-1.2-0.2-2-0.6-2.4c-0.4-0.4-1.1-0.6-2.2-0.6L752.9,51.2L752.9,51.2z
					"/>
			</g>
		</g>
	</g>
	<g>
		<g>
			
				<linearGradient id="SVGID_103_" gradientUnits="userSpaceOnUse" x1="28.548" y1="45.7235" x2="328.2101" y2="45.7235" gradientTransform="matrix(1 0 0 -1 0 94)">
				<stop  offset="0" style="stop-color:#992520"/>
				<stop  offset="0.7098" style="stop-color:#B22825"/>
				<stop  offset="1" style="stop-color:#BE2927"/>
			</linearGradient>
			<path class="st42" d="M72.4,34.6c-1.2-0.5-2.3-1-3.3-1.3c-1.1-0.3-2.3-0.5-3.8-0.5H48.9c-1.4,0-2.3,0.1-2.7,0.4
				c-0.4,0.2-0.6,0.8-0.6,1.7v2.6c0,0.9,0.2,1.4,0.6,1.7s1.3,0.4,2.7,0.4h12.5c3.9,0,6.8,0.7,8.7,2.2c1.9,1.4,2.8,3.8,2.8,7.1V60
				c0,3.8-0.8,6.7-2.4,8.5c-1.6,1.8-4.5,2.8-8.6,2.8H30.2l-1.5-8.9c1.1,0.4,2.1,0.7,3.2,0.9c1.1,0.2,2.3,0.4,3.7,0.4h17
				c1.3,0,2.2-0.1,2.7-0.4c0.4-0.2,0.6-0.8,0.6-1.7v-3.2c0-0.8-0.2-1.4-0.6-1.6s-1.3-0.4-2.7-0.4H38.3c-3.6,0-6.1-0.7-7.6-2.2
				c-1.4-1.4-2.2-4.1-2.2-7.8V36.2c0-3.6,0.8-6.3,2.5-8.1c1.7-1.9,4.1-2.8,7.2-2.8h32.6L72.4,34.6z"/>
			
				<linearGradient id="SVGID_104_" gradientUnits="userSpaceOnUse" x1="28.5479" y1="45.723" x2="328.21" y2="45.723" gradientTransform="matrix(1 0 0 -1 0 94)">
				<stop  offset="0" style="stop-color:#992520"/>
				<stop  offset="0.7098" style="stop-color:#B22825"/>
				<stop  offset="1" style="stop-color:#BE2927"/>
			</linearGradient>
			<path class="st43" d="M97.7,63.4c0,2.1,0.1,3.7,0.3,4.7c0.2,1,0.6,2.1,1.1,3.2H78.7c0.5-1,0.8-2,1.1-3.2c0.2-1.2,0.4-2.8,0.4-4.7
				V33.2c0-2.1-0.1-3.7-0.4-4.8c-0.3-1.1-0.8-2.1-1.5-3.1H116c3.8,0,6.7,0.8,8.7,2.3c2,1.6,3,4.5,3,8.9v7.2c0,4.4-1,7.3-2.9,8.9
				c-1.9,1.6-4.9,2.3-8.7,2.3H97.7V63.4z M97.7,47.3h9.2c1.3,0,2.1-0.3,2.6-0.8c0.4-0.5,0.6-1.6,0.6-3.2v-6.5c0-1.6-0.2-2.7-0.6-3.2
				c-0.4-0.5-1.3-0.8-2.6-0.8h-9.2C97.7,32.9,97.7,47.3,97.7,47.3z"/>
			
				<linearGradient id="SVGID_105_" gradientUnits="userSpaceOnUse" x1="28.5479" y1="45.7225" x2="328.21" y2="45.7225" gradientTransform="matrix(1 0 0 -1 0 94)">
				<stop  offset="0" style="stop-color:#992520"/>
				<stop  offset="0.7098" style="stop-color:#B22825"/>
				<stop  offset="1" style="stop-color:#BE2927"/>
			</linearGradient>
			<path class="st44" d="M164.3,43.7V33.2c0-2.1-0.1-3.7-0.3-4.7c-0.2-1-0.6-2.1-1.1-3.2h20.4c-0.5,1-0.8,2-1.1,3.2
				c-0.2,1.2-0.4,2.8-0.4,4.7v30.2c0,2.1,0.1,3.7,0.3,4.7c0.2,1,0.6,2.1,1.1,3.2h-20.4c0.5-1,0.8-2,1.1-3.2c0.2-1.2,0.4-2.8,0.4-4.7
				V51.3h-13.1v12.1c0,2.1,0.1,3.7,0.3,4.7c0.2,1,0.6,2.1,1.1,3.2h-20.4c0.5-1,0.8-2,1.1-3.2c0.2-1.2,0.4-2.8,0.4-4.7V33.2
				c0-2.1-0.1-3.7-0.3-4.7c-0.2-1-0.6-2.1-1.1-3.2h20.4c-0.5,1-0.8,2-1.1,3.2c-0.2,1.2-0.4,2.8-0.4,4.7v10.5L164.3,43.7L164.3,43.7z
				"/>
			
				<linearGradient id="SVGID_106_" gradientUnits="userSpaceOnUse" x1="28.5479" y1="45.723" x2="328.21" y2="45.723" gradientTransform="matrix(1 0 0 -1 0 94)">
				<stop  offset="0" style="stop-color:#992520"/>
				<stop  offset="0.7098" style="stop-color:#B22825"/>
				<stop  offset="1" style="stop-color:#BE2927"/>
			</linearGradient>
			<path class="st45" d="M189.6,71.3c0.5-1,0.8-2,1.1-3.2c0.2-1.2,0.4-2.8,0.4-4.7V33.2c0-2.1-0.1-3.7-0.3-4.7
				c-0.2-1-0.6-2.1-1.1-3.2h20.4c-0.5,1-0.8,2-1.1,3.2c-0.2,1.2-0.4,2.8-0.4,4.7v30.2c0,2.1,0.1,3.7,0.3,4.7c0.2,1,0.6,2.1,1.1,3.2
				C210.1,71.3,189.6,71.3,189.6,71.3z"/>
			
				<linearGradient id="SVGID_107_" gradientUnits="userSpaceOnUse" x1="28.5479" y1="45.723" x2="328.21" y2="45.723" gradientTransform="matrix(1 0 0 -1 0 94)">
				<stop  offset="0" style="stop-color:#992520"/>
				<stop  offset="0.7098" style="stop-color:#B22825"/>
				<stop  offset="1" style="stop-color:#BE2927"/>
			</linearGradient>
			<path class="st46" d="M225.7,33.2L225.5,63c0,2.6,0.1,4.3,0.3,5.3c0.2,0.9,0.7,1.9,1.4,3h-11.1c0.8-1.1,1.2-2.1,1.4-3
				c0.2-0.9,0.3-2.7,0.3-5.3V33.5c0-2.6-0.1-4.3-0.3-5.3c-0.2-0.9-0.7-1.9-1.4-3h24.7l18.7,37.6l0.2-29.3c0-2.6-0.1-4.3-0.3-5.3
				c-0.2-0.9-0.7-1.9-1.4-3h11.1c-0.8,1.1-1.2,2.1-1.4,3c-0.2,0.9-0.3,2.7-0.3,5.3v37.8h-22.8L225.7,33.2z"/>
			
				<linearGradient id="SVGID_108_" gradientUnits="userSpaceOnUse" x1="28.5479" y1="45.7235" x2="328.21" y2="45.7235" gradientTransform="matrix(1 0 0 -1 0 94)">
				<stop  offset="0" style="stop-color:#992520"/>
				<stop  offset="0.7098" style="stop-color:#B22825"/>
				<stop  offset="1" style="stop-color:#BE2927"/>
			</linearGradient>
			<path class="st47" d="M302.7,38.6l7.2-7.3c1.2-1.3,2.1-2.3,2.6-3.2c0.5-0.9,0.8-1.8,1-2.9h14.3c-1.5,1-2.8,2-4,3
				c-1.2,1.1-2.6,2.4-4.1,4l-12.2,12.6L322.4,65c1.2,1.7,2.3,3,3,3.8c0.8,0.9,1.7,1.7,2.8,2.5H303c0-1.7-0.1-2.9-0.4-3.6
				s-1-1.9-2.3-3.6l-5-6.8l-7.8,8.1c-2.3,2.3-3.5,4.3-3.7,5.9h-13.6c1.8-1.3,3-2.3,3.6-2.9s2-1.9,4-4l13-13.3l-14.8-19.6
				c-1.3-1.7-2.3-2.9-2.9-3.6c-0.6-0.7-1.8-1.6-3.5-2.7h25.9c0,1.2,0.1,2.2,0.4,3.1c0.3,0.8,0.7,1.6,1.3,2.4L302.7,38.6z"/>
		</g>
		<g>
			<path class="st48" d="M72.4,34.6c-1.2-0.5-2.3-1-3.3-1.3c-1.1-0.3-2.3-0.5-3.8-0.5H48.9c-1.4,0-2.3,0.1-2.7,0.4
				c-0.4,0.2-0.6,0.8-0.6,1.7v2.6c0,0.9,0.2,1.4,0.6,1.7s1.3,0.4,2.7,0.4h12.5c3.9,0,6.8,0.7,8.7,2.2c1.9,1.4,2.8,3.8,2.8,7.1V60
				c0,3.8-0.8,6.7-2.4,8.5c-1.6,1.8-4.5,2.8-8.6,2.8H30.2l-1.5-8.9c1.1,0.4,2.1,0.7,3.2,0.9c1.1,0.2,2.3,0.4,3.7,0.4h17
				c1.3,0,2.2-0.1,2.7-0.4c0.4-0.2,0.6-0.8,0.6-1.7v-3.2c0-0.8-0.2-1.4-0.6-1.6s-1.3-0.4-2.7-0.4H38.3c-3.6,0-6.1-0.7-7.6-2.2
				c-1.4-1.4-2.2-4.1-2.2-7.8V36.2c0-3.6,0.8-6.3,2.5-8.1c1.7-1.9,4.1-2.8,7.2-2.8h32.6L72.4,34.6z"/>
			<path class="st48" d="M97.7,63.4c0,2.1,0.1,3.7,0.3,4.7c0.2,1,0.6,2.1,1.1,3.2H78.7c0.5-1,0.8-2,1.1-3.2c0.2-1.2,0.4-2.8,0.4-4.7
				V33.2c0-2.1-0.1-3.7-0.4-4.8c-0.3-1.1-0.8-2.1-1.5-3.1H116c3.8,0,6.7,0.8,8.7,2.3c2,1.6,3,4.5,3,8.9v7.2c0,4.4-1,7.3-2.9,8.9
				c-1.9,1.6-4.9,2.3-8.7,2.3H97.7V63.4z M97.7,47.3h9.2c1.3,0,2.1-0.3,2.6-0.8c0.4-0.5,0.6-1.6,0.6-3.2v-6.5c0-1.6-0.2-2.7-0.6-3.2
				c-0.4-0.5-1.3-0.8-2.6-0.8h-9.2C97.7,32.9,97.7,47.3,97.7,47.3z"/>
			<path class="st48" d="M164.3,43.7V33.2c0-2.1-0.1-3.7-0.3-4.7c-0.2-1-0.6-2.1-1.1-3.2h20.4c-0.5,1-0.8,2-1.1,3.2
				c-0.2,1.2-0.4,2.8-0.4,4.7v30.2c0,2.1,0.1,3.7,0.3,4.7c0.2,1,0.6,2.1,1.1,3.2h-20.4c0.5-1,0.8-2,1.1-3.2c0.2-1.2,0.4-2.8,0.4-4.7
				V51.3h-13.1v12.1c0,2.1,0.1,3.7,0.3,4.7c0.2,1,0.6,2.1,1.1,3.2h-20.4c0.5-1,0.8-2,1.1-3.2c0.2-1.2,0.4-2.8,0.4-4.7V33.2
				c0-2.1-0.1-3.7-0.3-4.7c-0.2-1-0.6-2.1-1.1-3.2h20.4c-0.5,1-0.8,2-1.1,3.2c-0.2,1.2-0.4,2.8-0.4,4.7v10.5L164.3,43.7L164.3,43.7z
				"/>
			<path class="st48" d="M189.6,71.3c0.5-1,0.8-2,1.1-3.2c0.2-1.2,0.4-2.8,0.4-4.7V33.2c0-2.1-0.1-3.7-0.3-4.7
				c-0.2-1-0.6-2.1-1.1-3.2h20.4c-0.5,1-0.8,2-1.1,3.2c-0.2,1.2-0.4,2.8-0.4,4.7v30.2c0,2.1,0.1,3.7,0.3,4.7c0.2,1,0.6,2.1,1.1,3.2
				C210.1,71.3,189.6,71.3,189.6,71.3z"/>
			<path class="st48" d="M225.7,33.2L225.5,63c0,2.6,0.1,4.3,0.3,5.3c0.2,0.9,0.7,1.9,1.4,3h-11.1c0.8-1.1,1.2-2.1,1.4-3
				c0.2-0.9,0.3-2.7,0.3-5.3V33.5c0-2.6-0.1-4.3-0.3-5.3c-0.2-0.9-0.7-1.9-1.4-3h24.7l18.7,37.6l0.2-29.3c0-2.6-0.1-4.3-0.3-5.3
				c-0.2-0.9-0.7-1.9-1.4-3h11.1c-0.8,1.1-1.2,2.1-1.4,3c-0.2,0.9-0.3,2.7-0.3,5.3v37.8h-22.8L225.7,33.2z"/>
			<path class="st48" d="M302.7,38.6l7.2-7.3c1.2-1.3,2.1-2.3,2.6-3.2c0.5-0.9,0.8-1.8,1-2.9h14.3c-1.5,1-2.8,2-4,3
				c-1.2,1.1-2.6,2.4-4.1,4l-12.2,12.6L322.4,65c1.2,1.7,2.3,3,3,3.8c0.8,0.9,1.7,1.7,2.8,2.5H303c0-1.7-0.1-2.9-0.4-3.6
				s-1-1.9-2.3-3.6l-5-6.8l-7.8,8.1c-2.3,2.3-3.5,4.3-3.7,5.9h-13.6c1.8-1.3,3-2.3,3.6-2.9s2-1.9,4-4l13-13.3l-14.8-19.6
				c-1.3-1.7-2.3-2.9-2.9-3.6c-0.6-0.7-1.8-1.6-3.5-2.7h25.9c0,1.2,0.1,2.2,0.4,3.1c0.3,0.8,0.7,1.6,1.3,2.4L302.7,38.6z"/>
		</g>
	</g>
</g>
<g transform="matrix(4.76596e-17,-0.824637,-0.77834,-5.04944e-17,295.912,578.444)">
	<path class="st49" d="M647.9-698c4.3,0.3,8.4,1,12.3,2.3v-20.2C656.9-712.7,652.6-706.4,647.9-698z M655.2-699.1
		c0-0.6-0.5-1.1-1.1-1.1c0.6,0,1.1-0.5,1.1-1.1c0,0.6,0.5,1.1,1.1,1.1C655.7-700.3,655.2-699.8,655.2-699.1z"/>
	<path class="st50" d="M664.6-718c-0.7-0.3-1.6-0.1-2.6,0.6v22.2c0.3,0.1,0.5,0.2,0.8,0.3C666.4-707.9,667.3-716.8,664.6-718z"/>
	<g transform="matrix(1.24195e-16,-2.02826,-2.02826,-1.24195e-16,1162.49,686.691)">
		<path class="st50" d="M717.3,239.6l1.4,1.8l-2.6,5.4h-20.8c2.3-1.8,3.4-3.3,3-4.2c-0.8-1.9-7.9-0.9-17.9,2.3
			c-0.8-1.9-1.9-3.6-3.2-5.2l39.7-0.2L717.3,239.6z M680.6,241.4c0.3,0,0.5,0.2,0.5,0.5c0-0.3,0.2-0.5,0.5-0.5
			c-0.3,0-0.5-0.2-0.5-0.5C681.1,241.2,680.9,241.4,680.6,241.4z M686.8,240.5c0.3,0,0.5,0.2,0.5,0.5c0-0.3,0.2-0.5,0.5-0.5
			c-0.3,0-0.5-0.2-0.5-0.5C687.3,240.3,687.1,240.5,686.8,240.5z"/>
	</g>
	<g transform="matrix(1.24195e-16,-2.02826,-2.02826,-1.24195e-16,1162.49,686.691)">
		<path class="st49" d="M715.7,247.6l-3.5,7.2h-29.5v0c0,0,0-0.1,0-0.1l0-0.1c0,0,0-0.1,0-0.1c4.8-2.5,8.7-4.9,11.5-6.9H715.7z
			 M697.1,251.1c-0.7,0-1.3-0.6-1.3-1.3c0,0.7-0.6,1.3-1.3,1.3c0.7,0,1.3,0.6,1.3,1.3C695.8,251.7,696.4,251.1,697.1,251.1z"/>
	</g>
	<g transform="matrix(1.24195e-16,-2.02826,-2.02826,-1.24195e-16,1162.49,686.691)">
		<path class="st51" d="M711.8,255.7l-3.5,7.2h-26.8c0.7-2.3,1.1-4.7,1.2-7.2H711.8z M688.7,261c-0.5,0-1-0.4-1-1c0,0.5-0.4,1-1,1
			c0.5,0,1,0.4,1,1C687.8,261.5,688.2,261,688.7,261z M693.6,261.3c-0.3,0-0.5-0.2-0.5-0.5c0,0.3-0.2,0.5-0.5,0.5
			c0.3,0,0.5,0.2,0.5,0.5C693.1,261.5,693.4,261.3,693.6,261.3z M692.8,257.6c-0.6,0-1.1-0.5-1.1-1.1c0,0.6-0.5,1.1-1.1,1.1
			c0.6,0,1.1,0.5,1.1,1.1C691.7,258.1,692.2,257.6,692.8,257.6z"/>
	</g>
	<g transform="matrix(1.24195e-16,-2.02826,-2.02826,-1.24195e-16,1162.49,686.691)">
		<path class="st52" d="M707.9,263.8l-1,2c-0.9,2-2,3.7-3.4,5.2h-26.3c1.7-2.2,3-4.6,3.9-7.2H707.9z M683.2,268.6
			c-0.4,0-0.7-0.3-0.7-0.7c0,0.4-0.3,0.7-0.7,0.7c0.4,0,0.7,0.3,0.7,0.7C682.5,268.9,682.8,268.6,683.2,268.6z M696.6,267.4
			c-1,0-1.8-0.8-1.8-1.8c0,1-0.8,1.8-1.8,1.8c1,0,1.8,0.8,1.8,1.8C694.8,268.2,695.6,267.4,696.6,267.4z M686.8,266.1
			c0.3,0,0.5,0.2,0.5,0.5c0-0.3,0.2-0.5,0.5-0.5c-0.3,0-0.5-0.2-0.5-0.5C687.3,265.9,687.1,266.1,686.8,266.1z"/>
	</g>
</g>
<g transform="matrix(1.57867,0,0,1.67258,-222.78,-380.191)">
	<path class="st53" d="M771.6,271h-20.2c0-1.1-0.1-1.9-0.3-2.5c-0.2-0.5-0.6-1.3-1.3-2.2l-3.7-4.9l-6.2,6.5
		c-0.8,0.9-1.4,1.9-1.6,3.1h-16.7c0.4-0.8,0.7-1.6,0.7-2.2c0-0.8-0.3-1.8-0.8-3l-1.4-3.2h-13.8l-2.2,4.5c-0.3,0.4-0.3,1.1-0.3,1.8
		c0,0.6,0.3,1.4,0.7,2.2h-8.9c1.3-1.5,2.5-3.2,3.4-5.2l11.7-24.4l-1.4-1.8h14.2l10.9,26.3c0,0.1,0.1,0.2,0.1,0.2
		c0.1-0.1,0.2-0.2,0.3-0.4l8.3-8.5l-10-13.2c-1.6-2.2-3.1-3.6-4.5-4.5h17.7c0,1.5,0.3,2.6,1,3.5l4.1,5.6l5.4-5.4
		c1.2-1.2,1.8-2.5,2-3.7h9.8c-1.8,1.2-3.8,3-6,5.2l-7.9,8.2l10.7,14.5c0.3-0.5,0.6-1.1,0.8-1.6l11.7-24.4l-1.4-1.8h14.2l10.9,26.3
		c0.9,2.2,1.9,3.9,3,5.1h-15.8c0.4-0.8,0.7-1.6,0.7-2.2c0-0.8-0.3-1.8-0.8-3l-1.4-3.2h-13.8l-2.2,4.5c-0.3,0.4-0.3,1.1-0.3,1.8
		C770.9,269.5,771.2,270.3,771.6,271z M830.6,271h-19.1c-5.2,0-7.8-2.9-7.8-8.7v-14.1c0-5.8,2.6-8.7,7.8-8.7h19.1l0.9,6
		c-1.4-0.6-2.9-0.8-4.7-0.8h-8.7c-1.6,0-2.3,0.6-2.3,2v17.1c0,1.3,0.8,2,2.3,2h8.7c1.7,0,3.3-0.3,4.7-0.8L830.6,271z M859.8,271
		h-18.4c-5.2,0-7.8-2.9-7.8-8.7v-14.1c0-5.8,2.6-8.7,7.8-8.7h18.4c5.2,0,7.7,2.9,7.7,8.7v14.1C867.5,268.1,864.9,271,859.8,271z
		 M875.8,271h-7.2c0.6-1.3,0.9-3,0.9-5.2v-21c0-2.2-0.3-3.9-0.9-5.2h16.7l12.8,25.6h0.1v-20.5c0-2.2-0.3-3.9-1-5.2h7.1
		c-0.6,1.3-1,3-1,5.2V271h-15.6l-13-26v20.8C874.7,268.1,875.1,269.8,875.8,271z M855.6,263.9v-17.1c0-1.3-0.8-2-2.3-2H848
		c-1.6,0-2.3,0.6-2.3,2v17.1c0,1.3,0.8,2,2.3,2h5.2C854.8,265.8,855.6,265.2,855.6,263.9z M718,257.4l-4.5-10.6l-4.8,10.6H718z
		 M785.2,257.4l-4.5-10.6l-4.8,10.6H785.2z"/>
</g>
</svg>
